<?xml version="1.0" standalone="no"?>
<!DOCTYPE svg PUBLIC "-//W3C//DTD SVG 20010904//EN"
 "http://www.w3.org/TR/2001/REC-SVG-20010904/DTD/svg10.dtd">
<svg version="1.0" xmlns="http://www.w3.org/2000/svg"
 width="1280.000000pt" height="878.000000pt" viewBox="0 0 1280.000000 878.000000"
 preserveAspectRatio="xMidYMid meet">
<metadata>
Created by potrace 1.15, written by Peter Selinger 2001-2017
</metadata>
<g transform="translate(0.000000,878.000000) scale(0.100000,-0.100000)"
fill="#63e0df" stroke="none">
<path d="M2800 8764 c-711 -77 -1342 -340 -1807 -753 -384 -341 -716 -925
-873 -1536 -233 -908 -118 -1864 322 -2671 186 -342 376 -571 644 -776 436
-332 1073 -582 1759 -689 71 -11 130 -21 132 -22 2 -3 43 -251 164 -992 22
-137 78 -481 125 -764 46 -282 84 -515 84 -517 0 -10 46 -44 61 -44 48 0 53
11 459 1171 l396 1134 2835 6 c2565 5 2845 7 2947 22 818 120 1410 391 1863
855 181 184 307 357 447 616 522 957 583 2118 166 3140 -96 235 -270 546 -406
726 -408 542 -1046 906 -1850 1054 -318 59 -115 56 -3885 55 -2840 -1 -3480
-4 -3583 -15z"/>
</g>
</svg>
