<svg viewBox="0 0 300 271" fill="none" xmlns="http://www.w3.org/2000/svg">
<path d="M287.2 0.499999L12.8 0.499975C10.5515 0.499975 8.89529 0.500363 7.58636 0.607307C6.28326 0.713774 5.3685 0.923352 4.59509 1.31743C3.18387 2.03648 2.03653 3.18383 1.31747 4.59505C0.9234 5.36846 0.713836 6.28321 0.60736 7.58631C0.500426 8.89524 0.50003 10.5515 0.500029 12.8L0.500008 258.2C0.500008 260.448 0.500404 262.105 0.607338 263.414C0.713814 264.717 0.923378 265.632 1.31745 266.405C2.03651 267.816 3.18384 268.964 4.59507 269.683C5.36848 270.077 6.28324 270.286 7.58634 270.393C8.89527 270.5 10.5516 270.5 12.8 270.5L287.2 270.5C289.448 270.5 291.105 270.5 292.414 270.393C293.717 270.286 294.631 270.077 295.405 269.683C296.816 268.964 297.963 267.816 298.683 266.405C299.077 265.632 299.286 264.717 299.393 263.414C299.5 262.105 299.5 260.448 299.5 258.2L299.5 12.8C299.5 10.5515 299.5 8.89526 299.393 7.58633C299.286 6.28323 299.077 5.36848 298.683 4.59507C297.963 3.18386 296.816 2.0365 295.405 1.31745C294.632 0.923377 293.717 0.7138 292.414 0.607332C291.105 0.500388 289.448 0.499999 287.2 0.499999Z" stroke="url(#paint0_linear)"/>
<defs>
<linearGradient id="paint0_linear" x1="150" y1="-1.31134e-05" x2="150" y2="271" gradientUnits="userSpaceOnUse">
<stop stop-color="#804DF6"/>
<stop offset="0.322917" stop-color="#A752FB" stop-opacity="0.6"/>
<stop offset="0.953125" stop-color="#CA8EFE" stop-opacity="0"/>
</linearGradient>
</defs>
</svg>
