<svg viewBox="0 0 326 457" fill="none" xmlns="http://www.w3.org/2000/svg">
<path d="M325.5 12.8C325.5 10.5515 325.499 8.89526 325.392 7.58633C325.286 6.28323 325.076 5.36848 324.682 4.59507C323.963 3.18386 322.816 2.0365 321.405 1.31745C320.631 0.923377 319.716 0.713799 318.413 0.607332C317.104 0.500388 315.448 0.499999 313.2 0.499999L12.8277 0.499973C10.5748 0.499972 8.91525 0.500362 7.60391 0.607599C6.29837 0.714361 5.38217 0.924517 4.60794 1.31965C3.19522 2.04064 2.04739 3.19095 1.32953 4.60525C0.936065 5.38036 0.727905 6.29701 0.623992 7.60277C0.519622 8.91436 0.522857 10.5739 0.52777 12.8268L1.46883 444.227C1.47372 446.471 1.47771 448.124 1.58721 449.43C1.69622 450.731 1.90722 451.643 2.3019 452.415C3.02212 453.823 4.169 454.968 5.5787 455.685C6.35128 456.078 7.26458 456.287 8.56524 456.393C9.87176 456.5 11.5247 456.5 13.7688 456.5L313.2 456.5C315.448 456.5 317.104 456.5 318.413 456.393C319.716 456.286 320.631 456.077 321.405 455.683C322.816 454.964 323.963 453.816 324.682 452.405C325.076 451.632 325.286 450.717 325.392 449.414C325.499 448.105 325.5 446.448 325.5 444.2L325.5 12.8Z" fill="url(#paint0_linear)" stroke="url(#paint1_linear)"/>
<defs>
<linearGradient id="paint0_linear" x1="163" y1="-1.42499e-05" x2="163" y2="457" gradientUnits="userSpaceOnUse">
<stop stop-color="#F7ECFF" stop-opacity="0.02"/>
<stop offset="1" stop-color="#F7ECFF" stop-opacity="0.1"/>
</linearGradient>
<linearGradient id="paint1_linear" x1="163" y1="-1.42499e-05" x2="163" y2="457" gradientUnits="userSpaceOnUse">
<stop stop-color="#804DF6"/>
<stop offset="0.322917" stop-color="#A752FB" stop-opacity="0.6"/>
<stop offset="0.953125" stop-color="#CA8EFE" stop-opacity="0"/>
</linearGradient>
</defs>
</svg>
