<svg viewBox="0 0 390 203" fill="none" xmlns="http://www.w3.org/2000/svg">
<path d="M377.2 0.499511L12.8 0.499479C10.5515 0.499479 8.89529 0.499867 7.58636 0.606811C6.28326 0.713278 5.3685 0.922855 4.59509 1.31693C3.18387 2.03598 2.03653 3.18333 1.31747 4.59455C0.9234 5.36796 0.713836 6.28271 0.60736 7.58581C0.500426 8.89474 0.50003 10.551 0.500029 12.7995L0.500014 190.2C0.500014 192.448 0.50041 194.104 0.607344 195.413C0.713819 196.716 0.923384 197.631 1.31746 198.404C2.03651 199.816 3.18385 200.963 4.59508 201.682C5.36848 202.076 6.28325 202.286 7.58635 202.392C8.89528 202.499 10.5516 202.5 12.8 202.5L377.2 202.5C379.448 202.5 381.105 202.499 382.414 202.392C383.717 202.286 384.631 202.076 385.405 201.682C386.816 200.963 387.963 199.816 388.683 198.404C389.077 197.631 389.286 196.716 389.393 195.413C389.5 194.104 389.5 192.448 389.5 190.2L389.5 12.7995C389.5 10.5511 389.5 8.89478 389.393 7.58584C389.286 6.28275 389.077 5.368 388.683 4.59458C387.963 3.18337 386.816 2.03601 385.405 1.31696C384.632 0.922889 383.717 0.713311 382.414 0.606844C381.105 0.4999 379.448 0.499511 377.2 0.499511Z" stroke="url(#paint0_linear)"/>
<defs>
<linearGradient id="paint0_linear" x1="195" y1="-0.000505329" x2="195" y2="203" gradientUnits="userSpaceOnUse">
<stop stop-color="#804DF6"/>
<stop offset="0.322917" stop-color="#A752FB" stop-opacity="0.6"/>
<stop offset="0.953125" stop-color="#CA8EFE" stop-opacity="0"/>
</linearGradient>
</defs>
</svg>
