<svg viewBox="0 0 270 180" fill="none" xmlns="http://www.w3.org/2000/svg">
<path stroke-width="2" d="M15.451 11.0869C40.3258 7.61673 96.0526 0.5 134.669 0.5C173.286 0.5 229.012 7.61673 253.887 11.0869C261.139 12.0985 266.581 18.0965 266.929 25.4131C267.689 41.4012 268.838 69.0454 268.838 90C268.838 110.955 267.689 138.599 266.929 154.587C266.581 161.903 261.139 167.901 253.887 168.913C229.012 172.383 173.286 179.5 134.669 179.5C96.0526 179.5 40.3258 172.383 15.451 168.913C8.19954 167.901 2.75706 161.903 2.40928 154.587C1.6493 138.599 0.5 110.955 0.5 90C0.5 69.0454 1.6493 41.4012 2.40928 25.4131C2.75706 18.0965 8.19955 12.0985 15.451 11.0869Z" stroke="url(#paint0_linear)"/>
<defs>
<linearGradient id="paint0_linear" x1="134.669" y1="1.95925e-09" x2="134.713" y2="180.033" gradientUnits="userSpaceOnUse">
<stop stop-color="#804DF6"/>
<stop offset="0.223958" stop-color="#784DF6"/>
<stop offset="0.479167" stop-color="#CA8EFE"/>
<stop offset="1" stop-color="#CA8EFE" stop-opacity="0"/>
</linearGradient>
</defs>
</svg>
