<?xml version="1.0" encoding="UTF-8" standalone="no"?>
<!DOCTYPE svg PUBLIC "-//W3C//DTD SVG 20010904//EN" "http://www.w3.org/TR/2001/REC-SVG-20010904/DTD/svg10.dtd">
<svg version="1.0" xmlns="http://www.w3.org/2000/svg" width="600.000000pt" height="600.000000pt" viewBox="0 0 600.000000 600.000000" preserveAspectRatio="xMidYMid meet">
<metadata>
Created by potrace 1.11, written by Peter Selinger 2001-2013
</metadata>
<g transform="translate(0.000000,600.000000) scale(0.100000,-0.100000)" fill="#000000" stroke="none">
<path d="M2733 5843 c4 -6 1 -16 -7 -22 -11 -9 -15 -9 -18 1 -4 10 -8 10 -21 -1 -14 -11 -17 -11 -17 0 -1 8 -7 3 -16 -11 l-15 -25 7 25 c3 14 3 22 -1 18 -5 -4 -13 -3 -20 2 -8 7 -12 5 -12 -5 0 -8 5 -11 10 -8 6 3 7 1 3 -5 -4 -6 -14 -8 -22 -5 -9 3 -20 0 -26 -8 -8 -11 -9 -10 -4 4 3 11 0 17 -9 17 -8 0 -15 -6 -15 -14 0 -8 -4 -17 -9 -20 -5 -4 -7 4 -4 16 3 17 2 19 -5 10 -5 -8 -12 -13 -16 -13 -3 1 -8 0 -11 0 -3 -1 -13 -2 -23 -3 -11 0 -26 -7 -34 -13 -12 -10 -15 -10 -15 2 0 8 5 11 10 8 6 -3 7 -1 3 5 -5 9 -12 9 -26 0 -10 -7 -17 -15 -14 -19 6 -10 -24 -5 -33 6 -4 4 -2 5 6 0 10 -5 12 -4 7 4 -4 6 -12 9 -17 5 -5 -3 -7 -9 -4 -14 3 -5 0 -12 -6 -16 -8 -5 -9 -3 -4 6 6 10 4 12 -9 7 -10 -4 -22 -7 -27 -7 -6 0 -7 -6 -3 -12 6 -10 4 -10 -7 0 -18 16 -32 15 -26 -2 4 -10 1 -13 -8 -9 -8 3 -12 10 -8 17 3 6 3 8 -2 4 -4 -4 -15 -2 -24 5 -14 10 -14 10 -3 -4 10 -14 10 -18 -3 -23 -9 -3 -14 -2 -11 2 3 5 -1 9 -8 9 -8 0 -12 -6 -9 -14 3 -7 -2 -13 -12 -13 -9 0 -13 5 -9 11 4 7 1 10 -7 7 -8 -3 -13 -13 -11 -22 3 -16 2 -16 -22 0 -29 18 -34 13 -10 -10 8 -9 11 -16 5 -16 -5 0 -17 7 -26 17 -16 15 -16 14 -12 -15 3 -18 1 -35 -4 -38 -5 -3 -8 0 -7 7 2 6 -3 14 -11 17 -10 3 -11 0 -5 -9 6 -12 5 -12 -8 -1 -13 10 -18 9 -29 -5 -12 -15 -12 -16 4 -10 10 4 16 3 13 -2 -7 -12 -66 -12 -66 0 0 6 4 8 9 5 4 -3 16 1 26 8 17 12 17 13 1 19 -9 4 -14 3 -11 -2 3 -5 1 -12 -5 -16 -5 -3 -10 -1 -10 5 0 6 -10 2 -22 -9 -14 -14 -25 -17 -33 -11 -6 5 -16 5 -25 -2 -12 -8 -12 -9 2 -4 29 9 29 -10 0 -24 -15 -8 -30 -13 -33 -12 -3 0 -6 -5 -6 -12 0 -9 19 -1 49 20 34 25 48 30 48 19 0 -8 -3 -14 -7 -13 -13 4 -53 -28 -46 -36 4 -4 -1 -4 -11 0 -13 5 -17 4 -13 -3 4 -7 0 -10 -10 -9 -9 2 -20 11 -24 22 -4 10 -8 13 -8 6 -1 -7 4 -23 10 -35 7 -12 8 -19 4 -15 -4 4 -20 -2 -36 -13 -15 -10 -31 -19 -36 -18 -21 4 -31 -3 -36 -22 -3 -12 -9 -19 -14 -16 -4 3 -16 -1 -26 -8 -18 -13 -17 -14 2 -20 14 -4 21 -14 20 -28 -1 -17 -2 -18 -6 -4 -2 9 -9 14 -15 11 -7 -4 -8 -2 -4 4 4 7 2 12 -3 12 -15 0 -14 -27 2 -33 9 -3 8 -9 -5 -23 -9 -10 -17 -23 -16 -27 0 -5 -4 -12 -8 -15 -4 -4 -4 -1 0 6 4 6 3 12 -2 12 -19 0 -21 -14 -5 -34 17 -20 17 -20 -2 -6 -11 8 -21 15 -23 16 -8 4 12 34 23 34 25 0 34 24 18 45 -14 20 -15 19 -11 -4 2 -15 -3 -26 -12 -28 -12 -4 -12 -3 -2 5 11 7 11 10 -3 15 -11 5 -14 3 -9 -5 5 -8 2 -9 -11 -4 -15 5 -16 4 -6 -8 14 -16 7 -36 -12 -36 -7 0 -6 4 3 10 8 5 11 10 5 10 -13 -1 -45 -25 -45 -35 0 -4 6 -3 13 3 9 8 17 8 27 0 12 -8 12 -9 -2 -4 -10 3 -20 1 -23 -4 -4 -6 -1 -10 4 -10 6 0 11 -5 11 -12 0 -6 -3 -8 -7 -5 -8 8 -33 -11 -33 -25 0 -6 7 -5 15 2 9 7 18 10 21 7 3 -3 -3 -10 -15 -16 -16 -9 -22 -8 -30 6 -5 10 -12 15 -15 12 -10 -10 24 -48 38 -43 8 3 17 1 21 -5 4 -7 -1 -8 -12 -4 -16 6 -16 4 2 -18 15 -18 11 -16 -13 5 -30 28 -46 25 -19 -3 10 -11 9 -12 -2 -6 -10 6 -13 4 -9 -6 4 -10 -1 -15 -13 -16 -10 -1 -19 3 -19 8 0 6 -5 7 -11 4 -7 -5 -5 -15 6 -31 8 -13 11 -24 5 -24 -5 0 -10 5 -10 10 0 6 -5 10 -11 10 -5 0 -8 -4 -5 -9 3 -5 -1 -14 -9 -21 -11 -9 -12 -17 -5 -30 6 -10 10 -22 10 -27 -1 -4 -7 3 -14 16 -9 17 -15 20 -21 11 -4 -7 -2 -16 6 -21 19 -12 2 -11 -21 1 -11 6 -21 6 -25 1 -3 -5 3 -12 14 -16 11 -3 22 -12 25 -20 3 -9 0 -12 -10 -8 -7 3 -14 9 -14 14 0 5 -4 9 -10 9 -5 0 -9 -5 -7 -12 3 -18 21 -37 30 -31 4 2 7 -1 7 -6 0 -12 -13 -14 -24 -4 -8 9 -36 13 -36 6 0 -3 8 -12 18 -20 15 -12 13 -12 -10 -2 -28 12 -38 29 -17 29 5 0 8 3 6 8 -3 4 0 18 6 32 5 14 11 31 13 38 1 8 6 17 10 20 4 4 5 0 2 -9 -4 -9 -1 -16 8 -16 7 0 11 4 8 8 -8 14 16 50 28 43 7 -5 8 -2 3 6 -6 9 -4 11 5 5 9 -6 11 -4 5 5 -6 9 -4 11 5 5 9 -6 11 -4 5 5 -6 9 -4 11 5 5 8 -5 11 -4 6 3 -3 6 -15 9 -26 7 -11 -2 -20 0 -20 4 0 16 13 20 33 10 15 -9 18 -8 12 2 -5 8 -4 10 3 5 7 -4 12 -3 12 2 0 4 -16 16 -36 25 -19 10 -32 22 -29 27 3 6 -1 13 -9 16 -9 3 -14 9 -11 13 2 4 -2 8 -10 8 -12 0 -12 -3 -2 -16 10 -12 9 -14 -6 -8 -11 4 -16 3 -12 -4 4 -5 16 -7 27 -3 13 4 18 2 14 -4 -3 -6 -2 -13 4 -17 6 -3 8 -18 5 -33 -2 -14 1 -32 7 -39 7 -9 7 -13 0 -13 -6 0 -13 4 -17 10 -3 5 -12 7 -20 3 -11 -4 -13 -1 -9 11 3 9 10 13 15 10 5 -3 9 0 9 5 0 16 -15 13 -30 -4 -14 -17 -4 -37 17 -33 9 2 18 -3 21 -11 3 -8 0 -11 -7 -7 -7 5 -9 1 -4 -11 3 -10 2 -15 -2 -10 -5 4 -20 0 -33 -9 -24 -16 -25 -15 -18 2 4 10 4 15 0 11 -5 -4 -13 2 -20 14 l-11 22 -22 -22 c-21 -21 -41 -21 -41 0 0 6 5 7 10 4 6 -3 13 1 16 9 3 9 10 13 15 10 5 -3 9 0 9 5 0 16 -20 13 -26 -4 -4 -8 -10 -13 -14 -10 -14 9 -22 -15 -11 -29 6 -7 9 -21 5 -30 -3 -9 -1 -16 6 -16 6 0 9 4 5 9 -3 5 4 16 15 24 11 7 17 17 13 20 -3 4 1 7 10 7 23 0 21 -16 -2 -32 -15 -10 -16 -15 -6 -25 7 -6 16 -9 21 -5 4 4 4 -1 1 -11 -5 -12 -3 -16 5 -11 8 5 9 2 3 -12 -4 -10 -8 -27 -9 -37 0 -17 -21 -19 -21 -1 0 5 -4 15 -9 23 -7 11 -5 13 7 8 14 -5 15 -3 5 18 -9 20 -14 22 -30 14 -11 -6 -17 -16 -15 -23 3 -9 -5 -13 -25 -13 l-31 0 23 19 c13 10 20 21 16 25 -3 4 -14 -3 -22 -16 -12 -17 -19 -20 -30 -10 -7 6 -12 15 -9 19 3 5 0 12 -6 16 -8 4 -9 3 -5 -4 4 -7 1 -12 -6 -12 -10 0 -10 -2 1 -9 16 -10 23 -51 9 -51 -4 0 -8 5 -8 10 0 6 -5 10 -11 10 -8 0 -7 -5 1 -15 7 -9 19 -14 26 -11 7 3 16 1 19 -3 3 -5 -3 -12 -13 -16 -11 -4 -24 2 -39 20 -13 14 -23 22 -23 16 0 -5 5 -13 10 -16 14 -9 13 -18 -6 -41 -15 -18 -15 -18 -10 8 4 15 2 30 -4 33 -6 4 -7 -1 -3 -12 6 -16 5 -16 -10 -4 -11 9 -17 10 -17 2 0 -6 5 -11 10 -11 22 0 3 -51 -24 -65 -25 -13 -27 -13 -22 1 3 8 2 12 -3 9 -5 -3 -13 4 -16 15 -5 16 -10 18 -19 11 -15 -13 -26 -4 -26 20 0 23 -10 29 -35 18 -18 -9 -18 -9 3 -5 15 3 22 -1 22 -12 1 -18 23 -52 34 -52 4 0 4 5 1 10 -3 6 -2 10 3 10 6 0 13 -7 16 -16 9 -23 8 -24 -12 -18 -10 4 -13 3 -5 -3 11 -8 16 -27 14 -52 -1 -19 -16 -4 -16 16 0 9 -6 18 -12 20 -7 3 -13 0 -13 -7 0 -6 5 -8 10 -5 6 3 10 2 10 -2 0 -5 -9 -14 -21 -21 -19 -12 -20 -12 -14 9 7 23 7 23 -11 4 -13 -13 -15 -20 -6 -23 17 -5 15 -19 -3 -19 -24 0 -27 29 -4 54 13 12 17 23 11 23 -7 0 -12 -5 -12 -11 0 -6 -7 -9 -14 -6 -10 4 -13 1 -10 -8 4 -10 -2 -13 -26 -10 l-31 4 23 -20 c23 -20 23 -20 1 -14 -16 4 -25 0 -33 -15 -6 -11 -16 -17 -22 -14 -7 4 -8 3 -4 -4 9 -15 36 -4 36 14 0 8 5 14 10 14 36 0 -24 -64 -63 -67 -15 -1 -25 2 -22 7 4 6 1 10 -5 10 -7 0 -9 -7 -6 -15 4 -11 0 -15 -12 -13 -9 2 -19 12 -22 22 -5 18 -35 30 -52 20 -9 -6 13 -44 26 -44 5 0 1 9 -10 21 -19 21 -19 21 1 18 11 -2 23 -13 26 -24 3 -11 11 -19 17 -17 15 3 16 -30 1 -45 -6 -6 -19 -9 -28 -6 -12 4 -11 2 3 -9 13 -10 15 -17 8 -22 -7 -4 -12 -2 -12 4 0 6 -4 8 -10 5 -5 -3 -11 -1 -11 4 -1 6 -2 17 -3 23 -1 15 -36 24 -36 9 0 -6 6 -8 13 -5 8 3 14 -1 15 -8 6 -53 9 -63 19 -61 7 2 11 -6 10 -17 -2 -27 -11 -25 -27 5 -7 13 -16 22 -20 20 -5 -3 -10 2 -14 10 -3 8 -12 15 -20 15 -16 0 -56 -46 -56 -64 0 -6 9 4 20 22 11 17 28 32 37 32 16 -1 16 -2 -2 -16 l-20 -16 20 6 c11 3 27 1 35 -4 16 -10 13 -11 -34 -14 -27 -1 -52 -26 -26 -26 6 0 8 5 5 10 -3 6 -2 10 4 10 5 0 12 -6 14 -12 4 -10 6 -10 6 0 2 23 19 12 19 -13 0 -20 -3 -23 -14 -14 -8 6 -20 9 -28 6 -7 -3 -23 1 -35 9 -12 9 -21 11 -21 5 0 -6 5 -11 10 -11 6 0 10 -5 10 -11 0 -6 -7 -8 -16 -5 -8 3 -13 2 -10 -3 3 -5 -1 -12 -10 -15 -11 -4 -14 -1 -10 12 4 11 -2 22 -14 30 -21 13 -45 8 -35 -8 3 -5 -2 -16 -11 -24 -8 -9 -11 -16 -5 -16 13 0 32 35 24 44 -3 3 -2 6 4 6 6 0 16 -7 23 -15 10 -12 10 -15 -4 -15 -11 0 -8 -8 13 -28 l29 -27 -35 -24 c-23 -14 -34 -18 -31 -9 7 17 -19 55 -29 44 -4 -4 0 -12 10 -17 9 -6 15 -15 11 -21 -4 -6 -9 -5 -15 3 -6 10 -8 9 -8 -6 0 -46 -7 -65 -31 -87 -13 -13 -27 -21 -30 -20 -16 12 -44 24 -38 17 4 -4 3 -17 -3 -29 -9 -19 -9 -19 4 -3 19 23 30 22 17 -3 -6 -11 -9 -24 -6 -29 3 -4 -7 -14 -21 -20 -19 -9 -23 -15 -14 -20 9 -6 2 -17 -26 -40 -21 -18 -29 -29 -19 -25 15 6 17 4 11 -6 -5 -8 -4 -11 2 -7 6 4 17 -1 24 -10 12 -14 11 -15 -10 -8 -21 6 -23 5 -18 -17 5 -18 2 -25 -8 -25 -11 0 -13 6 -9 20 6 18 5 18 -13 0 -13 -13 -15 -19 -6 -21 18 -5 16 -22 -1 -22 -8 0 -18 -5 -22 -11 -4 -7 0 -9 14 -5 24 8 39 -11 23 -27 -9 -9 -11 -8 -6 6 4 10 2 17 -4 17 -6 0 -10 -5 -9 -11 2 -6 -3 -14 -11 -17 -8 -3 -11 0 -7 7 4 7 2 9 -8 5 -8 -3 -17 -13 -20 -21 -5 -13 -4 -14 8 -4 12 10 15 9 13 -8 -1 -14 -6 -20 -15 -16 -7 2 -10 0 -7 -5 3 -6 1 -10 -5 -10 -6 0 -8 -4 -5 -10 3 -5 0 -10 -7 -10 -9 -1 -7 -5 4 -14 10 -7 15 -16 11 -19 -3 -4 -13 -1 -21 6 -13 9 -14 9 -8 0 4 -7 2 -13 -3 -13 -6 0 -11 -5 -11 -11 0 -5 4 -8 9 -4 5 3 12 1 16 -5 6 -9 -7 -14 -27 -11 -12 2 -10 -17 2 -24 6 -4 8 -10 5 -15 -3 -5 -1 -11 4 -14 13 -9 42 4 35 16 -4 5 -10 5 -18 -1 -8 -7 -12 -4 -13 10 -1 10 3 19 8 19 6 0 7 -6 3 -12 -5 -9 -3 -9 9 1 9 7 14 18 10 24 -3 6 -1 7 5 3 7 -4 10 1 7 14 -3 14 0 18 8 13 7 -4 5 2 -3 12 -12 15 -12 17 -1 10 10 -6 12 -4 6 5 -6 9 -4 11 5 5 8 -5 11 -4 6 3 -4 7 1 10 14 7 11 -2 20 1 20 7 0 5 -7 7 -16 4 -8 -3 -2 8 15 24 19 20 28 36 24 47 -5 12 -2 15 10 10 12 -4 14 -2 10 10 -4 11 -3 14 5 9 7 -4 15 0 18 9 5 12 9 14 14 4 5 -7 7 -2 7 14 -1 14 -6 22 -12 19 -5 -3 -4 1 2 9 10 12 10 18 1 27 -9 9 -6 11 10 7 12 -2 26 -6 31 -9 5 -3 7 8 6 24 -1 17 2 33 8 37 5 3 7 2 4 -3 -3 -5 2 -10 12 -10 10 0 18 6 18 12 0 7 -6 10 -14 7 -7 -3 -13 0 -13 7 0 6 4 9 9 5 17 -10 25 18 8 30 -14 10 -13 12 5 24 11 7 18 8 14 3 -3 -5 1 -9 9 -9 8 0 15 4 15 9 0 5 4 7 9 3 5 -3 12 -1 16 5 4 6 10 8 15 5 5 -3 7 3 5 15 -2 11 1 19 8 17 7 -1 11 4 9 11 -1 6 3 12 9 12 5 0 7 5 3 11 -4 8 -9 7 -15 -2 -6 -10 -9 -10 -9 -2 0 6 4 14 10 18 5 3 6 13 3 23 -5 14 -2 13 11 -3 10 -11 14 -13 10 -5 -6 12 -5 13 7 4 18 -13 44 -12 44 3 0 6 3 15 8 19 4 4 7 0 7 -10 0 -10 5 -14 11 -11 7 5 4 14 -7 26 -10 11 -12 19 -6 19 7 0 12 -5 12 -12 0 -9 3 -9 11 -1 9 9 16 29 18 58 1 6 6 3 11 -5 6 -9 10 -10 10 -3 0 7 -8 16 -18 22 -15 9 -15 10 5 8 12 0 19 -5 16 -10 -3 -5 4 -4 14 2 11 6 24 7 28 3 5 -4 5 -1 1 6 -4 7 -1 15 9 18 13 6 14 8 3 15 -10 7 -10 9 1 9 11 0 10 4 -4 13 -17 13 -17 14 1 12 11 0 26 -5 34 -10 13 -8 13 -6 0 10 -12 15 -12 17 -1 10 10 -6 12 -4 6 5 -6 9 -4 11 5 5 9 -6 11 -4 5 5 -5 9 -4 11 3 6 7 -4 10 -2 6 7 -5 15 23 44 33 33 4 -3 -2 -12 -12 -20 -13 -9 -15 -15 -6 -20 7 -5 15 -5 18 -2 4 3 1 6 -4 6 -6 0 0 13 15 29 l25 30 14 -26 c18 -35 16 -39 -7 -12 -10 13 -19 19 -20 14 0 -6 5 -16 12 -23 9 -9 9 -12 0 -12 -7 0 -12 5 -12 12 0 6 -3 8 -8 4 -4 -4 -7 -11 -7 -14 0 -4 -16 -22 -35 -41 -19 -18 -34 -39 -32 -46 1 -8 -2 -16 -8 -20 -6 -3 -7 0 -4 10 5 11 2 14 -10 9 -8 -3 -15 -9 -14 -12 1 -4 -5 -19 -12 -35 -9 -18 -19 -26 -30 -22 -11 3 -17 0 -17 -10 0 -8 4 -15 9 -15 4 0 8 -5 8 -12 0 -9 -3 -9 -12 0 -21 21 -32 13 -12 -10 10 -12 14 -18 7 -15 -6 4 -14 3 -18 -3 -4 -6 -10 -8 -15 -5 -4 3 -14 -2 -21 -11 -10 -13 -10 -17 2 -25 11 -7 11 -9 0 -9 -11 0 -11 -3 0 -17 11 -15 11 -16 -1 -5 -16 14 -34 16 -25 3 3 -5 -1 -16 -9 -24 -8 -8 -14 -16 -13 -19 1 -2 -6 4 -15 14 -9 10 -19 14 -22 10 -3 -5 3 -17 14 -27 20 -18 18 -35 -3 -35 -8 0 -8 3 2 9 7 5 9 10 5 13 -17 8 -37 3 -42 -11 -3 -8 0 -11 6 -7 5 3 13 -1 16 -9 4 -13 2 -13 -14 -5 -12 7 -21 7 -25 0 -3 -5 -2 -10 2 -10 5 0 18 -7 29 -15 18 -14 18 -15 0 -9 -16 6 -17 4 -7 -15 9 -16 9 -26 1 -39 -11 -16 -11 -16 -6 1 6 20 -3 49 -14 42 -4 -3 -13 2 -20 10 -13 15 -30 12 -30 -6 0 -6 3 -8 8 -5 12 7 37 -17 40 -39 l2 -20 -12 20 c-16 25 -38 30 -38 9 0 -8 4 -13 9 -9 15 9 25 -15 12 -28 -9 -9 -11 -8 -6 3 4 11 -1 16 -16 17 -16 2 -18 -1 -10 -11 9 -10 8 -15 -3 -19 -10 -4 -13 -1 -10 7 3 7 -1 13 -8 13 -7 0 -20 4 -29 7 -10 5 -16 2 -16 -9 0 -9 6 -14 14 -11 7 3 18 -4 24 -15 8 -16 14 -18 22 -10 6 6 18 11 26 10 10 0 6 -4 -8 -10 -19 -8 -21 -12 -11 -24 10 -12 10 -15 0 -15 -9 0 -9 -4 1 -17 12 -16 12 -17 -2 -6 -9 7 -20 9 -24 5 -5 -4 -5 -1 -1 6 4 6 3 12 -3 12 -18 0 -21 -17 -6 -30 8 -7 15 -17 15 -23 0 -5 -8 -1 -17 10 -10 11 -28 19 -40 18 -25 -1 -44 -15 -22 -15 11 0 11 -2 -1 -10 -9 -6 -10 -10 -3 -10 6 0 15 -9 18 -20 4 -11 11 -18 16 -15 5 4 5 14 -1 25 -13 24 -13 30 1 30 5 0 7 -5 3 -12 -5 -8 -2 -9 11 -4 13 5 15 3 8 -6 -6 -7 -9 -21 -7 -31 1 -11 0 -16 -3 -13 -4 3 -12 1 -20 -6 -10 -8 -17 -8 -25 0 -17 17 -33 15 -18 -3 6 -8 9 -18 6 -24 -3 -5 -1 -12 4 -14 6 -3 5 -4 -2 -3 -7 1 -13 11 -13 21 0 10 -5 20 -11 22 -7 2 -11 -4 -10 -14 0 -11 -6 -18 -16 -18 -9 0 -20 -4 -24 -8 -8 -7 8 -11 38 -8 10 1 18 -2 18 -8 0 -6 -7 -7 -17 -4 -11 4 -14 3 -9 -5 4 -7 2 -12 -3 -12 -6 0 -11 5 -11 11 0 5 -4 7 -10 4 -5 -3 -10 -1 -10 4 0 6 -5 11 -10 11 -6 0 -9 -6 -8 -12 3 -15 37 -37 52 -34 6 2 8 1 4 -1 -5 -3 -8 -9 -8 -14 0 -6 4 -8 9 -4 5 3 12 1 15 -4 4 -5 -1 -8 -10 -7 -8 1 -19 9 -24 16 -5 8 -12 11 -16 7 -4 -3 -1 -14 7 -23 13 -16 12 -16 -8 -4 -16 11 -19 17 -11 27 6 8 7 13 0 13 -5 0 -15 -6 -21 -14 -10 -12 -8 -17 8 -26 12 -6 20 -14 20 -18 -3 -18 2 -33 9 -28 4 2 9 -5 9 -17 2 -18 0 -17 -17 8 l-19 29 -10 -24 c-9 -23 -10 -24 -10 -4 -1 12 7 25 16 28 15 6 15 8 3 16 -21 13 -26 12 -28 -5 -1 -8 -3 -22 -4 -29 -1 -8 -6 -14 -11 -13 -5 1 -11 -3 -14 -9 -2 -7 4 -11 13 -10 9 0 19 -5 21 -11 3 -7 0 -13 -7 -13 -6 0 -9 4 -6 9 3 5 -6 9 -21 9 l-27 -1 23 -18 c18 -15 20 -22 11 -36 -10 -15 -11 -15 -6 -1 2 9 -3 22 -11 30 -14 11 -16 11 -10 -4 3 -10 0 -24 -8 -32 -17 -16 -10 -27 13 -19 14 4 15 3 2 -5 -10 -8 -18 -8 -27 0 -18 14 -16 -4 2 -28 8 -10 15 -23 15 -28 0 -6 -6 -2 -13 8 -7 9 -19 18 -27 19 -8 2 -21 6 -27 10 -8 5 -13 4 -13 -2 0 -6 5 -11 12 -11 9 0 9 -3 0 -12 -17 -17 -15 -29 5 -26 10 2 18 -2 18 -9 0 -6 3 -15 8 -19 4 -4 7 -12 7 -18 0 -6 -5 -3 -11 7 -6 9 -15 14 -21 11 -6 -4 -8 -3 -5 3 3 5 0 10 -7 10 -8 0 -12 -7 -8 -15 4 -11 1 -13 -8 -7 -9 5 -11 4 -6 -4 4 -6 11 -9 15 -7 4 3 7 -7 7 -22 -1 -20 5 -28 24 -33 23 -6 23 -7 3 -8 -12 -1 -24 3 -27 8 -7 11 -32 9 -43 -4 -4 -4 -2 -5 6 0 9 5 12 3 9 -6 -3 -8 -14 -13 -24 -12 -16 1 -16 -1 4 -15 16 -13 19 -21 12 -28 -8 -8 -7 -13 4 -17 10 -4 13 -1 9 9 -3 7 -1 14 5 14 6 0 9 -8 8 -17 -2 -11 -12 -18 -24 -18 -11 0 -24 -4 -28 -8 -5 -4 0 -5 10 -1 13 5 17 4 13 -3 -8 -13 11 -12 33 2 13 8 13 7 1 -8 -7 -9 -17 -14 -22 -11 -6 3 -8 -6 -5 -21 3 -15 2 -24 -2 -20 -4 3 -7 12 -7 18 0 5 -7 12 -15 14 -12 4 -13 3 -1 -5 11 -8 10 -11 -5 -15 -18 -4 -18 -5 0 -6 12 -1 16 -6 12 -17 -4 -10 -2 -13 6 -8 7 4 8 3 4 -4 -4 -7 -2 -12 5 -12 7 0 10 -3 7 -6 -4 -3 -16 -1 -27 5 -17 10 -20 9 -15 -4 4 -8 10 -16 15 -16 5 -1 13 -2 18 -3 5 0 13 -5 18 -10 5 -5 3 -6 -5 -2 -7 4 -12 2 -12 -6 0 -8 -3 -9 -8 -3 -15 21 -29 14 -24 -12 3 -16 1 -24 -5 -20 -5 3 -10 0 -10 -8 0 -8 4 -15 8 -15 5 0 12 -14 23 -50 1 -3 5 -12 11 -20 8 -13 7 -13 -10 0 -17 14 -18 13 -12 -4 7 -17 6 -17 -9 -5 -16 13 -16 12 -5 -8 6 -13 8 -23 4 -23 -4 0 2 -7 13 -16 10 -8 14 -13 7 -10 -6 4 -14 -3 -18 -14 -4 -11 -11 -17 -17 -14 -7 4 -8 2 -4 -5 6 -9 11 -9 22 0 12 10 17 9 27 0 9 -10 8 -11 -5 -6 -17 7 -35 -26 -24 -44 4 -5 0 -12 -6 -14 -8 -4 -7 -6 4 -6 9 -1 19 5 21 12 4 9 6 9 6 -1 1 -7 -6 -15 -14 -18 -8 -4 -12 -10 -9 -15 3 -5 10 -6 16 -3 7 4 8 2 4 -5 -4 -7 -17 -9 -29 -6 -20 5 -20 5 -4 -5 14 -9 16 -15 6 -26 -14 -17 2 -19 21 -1 12 10 12 9 0 -6 -8 -11 -10 -21 -4 -25 13 -10 16 -39 4 -47 -5 -3 -7 0 -5 7 3 8 -1 22 -8 32 -12 16 -14 16 -14 2 0 -9 4 -16 9 -16 4 0 8 -5 8 -11 0 -5 -4 -8 -8 -5 -5 3 -9 -1 -9 -9 0 -8 3 -14 6 -13 19 2 28 -4 28 -17 0 -11 -4 -12 -14 -4 -18 16 -16 4 3 -15 14 -15 14 -16 -3 -16 -15 0 -15 -2 -3 -9 8 -6 18 -7 24 -4 5 3 6 1 2 -6 -4 -6 -11 -9 -15 -7 -4 3 -8 -1 -8 -9 0 -18 9 -19 25 -3 7 7 12 8 12 2 0 -5 -9 -15 -19 -21 -11 -7 -18 -18 -17 -25 7 -30 19 -47 30 -41 6 4 5 -1 -3 -10 -11 -14 -11 -17 0 -17 12 0 12 -2 0 -9 -11 -7 -9 -10 9 -16 20 -6 21 -9 7 -16 -9 -5 -14 -16 -10 -25 4 -12 8 -12 22 -2 14 11 14 11 3 -3 -7 -9 -9 -25 -6 -35 6 -17 5 -17 -10 1 -17 20 -17 20 -7 -1 6 -12 7 -24 4 -28 -9 -9 11 -8 23 2 5 4 2 0 -7 -8 -13 -13 -13 -18 -3 -28 7 -6 11 -22 8 -36 -2 -15 1 -26 11 -30 17 -6 21 9 5 17 -6 3 -5 4 2 3 7 -2 13 -9 13 -17 0 -8 -6 -13 -12 -12 -7 2 -13 -2 -13 -7 0 -6 8 -10 17 -10 15 0 14 -2 -3 -15 -11 -9 -13 -13 -4 -10 9 3 21 -4 28 -16 8 -12 9 -18 4 -15 -6 3 -13 -1 -16 -10 -3 -8 -2 -13 3 -10 5 3 12 -1 15 -10 4 -9 2 -13 -5 -8 -8 4 -7 0 0 -15 9 -16 9 -21 0 -21 -7 0 -10 -3 -7 -6 4 -3 17 0 30 7 21 11 22 11 10 -4 -15 -18 -7 -41 10 -31 7 4 8 2 4 -5 -4 -6 -11 -9 -16 -6 -5 3 -12 0 -16 -6 -4 -8 -3 -9 4 -5 7 4 12 2 12 -4 0 -6 5 -8 12 -4 8 5 7 0 -2 -11 -12 -15 -12 -17 -1 -10 11 6 13 4 8 -9 -4 -10 -1 -19 8 -22 8 -4 15 -13 15 -21 0 -8 4 -12 8 -9 12 7 9 -58 -3 -67 -6 -5 -4 -7 5 -4 8 2 14 10 13 16 -2 6 1 11 6 11 5 0 9 -11 9 -25 0 -14 -5 -22 -11 -18 -6 3 -7 1 -3 -6 4 -6 12 -9 18 -5 5 3 9 -2 7 -12 -3 -23 20 -74 33 -74 5 0 0 14 -12 30 -18 26 -19 30 -5 30 9 0 14 -4 11 -9 -3 -4 1 -17 8 -27 10 -13 11 -23 4 -31 -7 -9 -7 -13 2 -13 7 0 10 -8 7 -20 -3 -10 -2 -19 2 -18 20 2 29 -4 27 -19 -2 -10 3 -24 11 -31 7 -8 10 -18 7 -24 -4 -6 -2 -8 3 -5 6 4 14 0 17 -9 4 -10 2 -13 -7 -9 -6 4 -1 -3 13 -15 14 -12 19 -19 13 -15 -9 4 -11 1 -7 -9 3 -9 11 -13 17 -9 6 4 8 0 4 -10 -3 -9 -1 -19 5 -23 7 -5 8 -2 3 6 -6 9 -4 11 4 6 7 -5 10 -14 7 -22 -5 -13 6 -19 27 -15 5 1 6 -3 2 -9 -8 -12 19 -53 29 -43 4 4 5 1 1 -7 -3 -8 6 -27 19 -41 14 -15 22 -30 19 -33 -4 -3 -1 -6 6 -6 7 0 17 -13 22 -30 6 -16 17 -30 25 -30 8 0 14 -7 14 -15 0 -9 7 -18 15 -21 8 -4 12 -10 9 -15 -3 -5 0 -9 5 -9 6 0 11 -6 11 -13 0 -7 8 -20 17 -29 30 -28 42 -46 36 -52 -4 -3 -1 -6 6 -6 7 0 19 -7 27 -15 9 -8 13 -15 9 -15 -3 0 8 -14 25 -30 17 -17 28 -35 24 -42 -4 -7 -3 -8 4 -4 7 4 12 2 12 -4 0 -6 5 -8 12 -4 6 4 8 3 4 -4 -3 -6 4 -18 16 -26 12 -9 18 -16 13 -16 -5 0 0 -6 10 -14 11 -8 23 -12 27 -10 4 3 5 -3 1 -12 -4 -12 -3 -15 5 -10 7 4 12 2 12 -5 0 -15 47 -59 54 -51 3 3 6 0 6 -7 0 -17 72 -81 84 -74 5 3 7 2 4 -3 -4 -5 7 -20 24 -34 16 -14 38 -33 49 -42 10 -10 23 -18 29 -18 5 0 10 -7 10 -17 0 -9 3 -14 6 -10 9 9 44 -25 37 -36 -3 -6 -1 -7 5 -3 7 4 12 2 12 -4 0 -6 4 -9 9 -6 5 3 11 -1 15 -9 3 -8 12 -15 21 -15 8 0 15 -4 15 -10 0 -5 7 -10 15 -10 8 0 15 -4 15 -8 0 -5 11 -15 25 -22 13 -7 22 -17 19 -21 -3 -5 2 -6 10 -3 9 4 18 -1 22 -10 3 -9 12 -16 20 -16 8 0 14 -4 14 -10 0 -5 7 -10 15 -10 9 0 18 -7 22 -16 5 -13 7 -13 14 -2 7 10 9 9 9 -5 0 -10 5 -15 10 -12 6 3 10 1 10 -5 0 -6 5 -8 10 -5 5 3 10 1 10 -6 0 -8 4 -8 15 1 13 11 14 10 9 -5 -5 -13 -4 -16 4 -11 7 4 12 4 12 -1 0 -8 43 -29 107 -53 17 -7 38 -9 45 -4 7 4 10 3 5 -1 -12 -14 45 -34 61 -22 9 8 12 7 10 -3 -3 -11 9 -15 60 -22 6 -1 12 -6 12 -12 0 -6 5 -4 10 4 6 10 10 11 10 3 0 -7 3 -12 8 -12 4 1 9 0 12 -1 3 -1 21 -4 40 -6 19 -3 41 -5 48 -6 6 -1 12 -5 12 -9 0 -4 8 -7 18 -7 9 0 31 -2 47 -6 17 -4 41 -9 55 -11 36 -7 65 -13 68 -15 1 -2 5 -3 10 -4 4 -1 13 -5 21 -10 10 -6 12 -5 7 2 -4 7 -2 12 3 12 6 0 11 -4 11 -8 0 -5 13 -8 30 -7 17 1 31 -4 35 -13 4 -11 9 -12 19 -3 7 6 20 9 27 6 8 -2 46 -6 85 -8 39 -2 76 -7 82 -11 7 -4 12 -2 12 6 0 9 3 9 8 2 4 -6 23 -10 42 -9 19 0 41 -3 48 -8 7 -6 12 -5 12 2 0 7 8 8 23 2 12 -5 34 -7 50 -5 17 2 25 -1 21 -8 -4 -6 2 -6 15 1 14 8 21 8 21 1 0 -7 6 -8 19 0 24 12 42 13 23 1 -9 -5 14 -8 55 -7 37 1 74 -2 81 -7 8 -6 12 -5 12 3 0 10 3 10 15 0 11 -9 15 -9 15 -1 0 8 6 9 18 3 9 -4 89 -7 177 -6 212 2 208 2 199 17 -4 6 2 4 13 -6 13 -11 23 -14 27 -8 4 5 15 8 25 6 11 -2 22 3 25 11 6 16 -5 18 -22 4 -7 -5 -6 -3 2 6 11 13 18 14 32 5 11 -6 13 -11 7 -11 -7 0 -13 -4 -13 -9 0 -4 12 -6 28 -4 15 2 33 5 40 5 7 1 10 10 7 22 -3 12 -2 15 1 8 3 -6 11 -9 17 -5 6 4 8 0 5 -9 -4 -8 -1 -15 7 -15 8 0 11 7 7 15 -4 11 -2 13 9 6 19 -12 32 -12 47 -1 8 6 12 5 12 -2 0 -7 4 -10 10 -6 5 3 7 13 4 23 -5 13 -4 14 4 3 5 -7 15 -11 21 -7 6 4 9 1 8 -6 -2 -7 -2 -10 0 -6 2 4 11 4 19 1 8 -3 14 0 14 7 0 6 -5 8 -10 5 -5 -3 -10 -1 -10 5 0 6 8 10 18 8 12 -2 16 3 14 17 -2 16 -1 17 7 5 7 -9 6 -19 -1 -27 -7 -9 -7 -13 1 -13 7 0 9 -4 6 -10 -3 -5 -1 -10 5 -10 6 0 10 8 8 18 -2 10 2 16 11 14 9 -2 11 3 7 15 -4 9 -4 14 0 10 4 -4 13 1 21 11 13 15 13 15 3 -6 -6 -12 -8 -27 -5 -32 3 -5 -4 -7 -16 -5 -12 2 -19 1 -15 -2 10 -11 85 -10 79 0 -3 5 5 6 18 2 36 -11 37 -11 38 0 1 9 -10 12 -54 16 -5 1 -17 -1 -25 -3 -8 -3 -12 -3 -7 -1 4 3 7 12 7 21 0 15 2 15 10 2 5 -8 10 -11 10 -7 0 4 9 3 19 -3 13 -7 22 -7 26 0 3 5 11 10 16 10 6 0 8 -4 4 -9 -3 -6 4 -9 15 -8 11 1 20 7 20 15 0 7 -5 10 -12 6 -7 -4 -8 -3 -4 5 11 17 29 2 23 -20 -3 -11 -1 -19 5 -19 5 0 6 -5 3 -11 -5 -6 -12 -4 -21 8 -7 10 -14 13 -14 7 0 -6 6 -16 13 -23 17 -14 38 5 30 27 -4 10 -2 13 5 8 7 -4 12 -1 12 9 0 10 -5 13 -12 9 -7 -4 -10 -3 -5 1 4 5 16 9 28 10 13 1 16 -2 9 -9 -5 -5 -10 -15 -10 -21 0 -5 14 6 31 25 27 31 28 32 12 5 -10 -16 -18 -32 -18 -35 0 -3 -8 -4 -17 -4 -10 1 -18 -2 -18 -7 0 -4 15 -6 33 -5 26 2 31 6 29 23 -2 12 2 24 9 28 7 5 9 1 5 -11 -6 -22 9 -52 21 -41 4 5 1 12 -6 16 -9 6 -10 11 -2 15 6 4 9 12 6 17 -4 5 -2 9 4 9 5 0 13 -5 16 -10 5 -8 11 -7 20 0 8 7 19 9 25 5 5 -3 10 2 11 12 0 13 3 12 10 -7 l10 -25 27 30 c14 17 23 22 19 13 -4 -11 0 -22 11 -28 16 -11 16 -11 0 -6 -10 3 -20 1 -23 -5 -4 -5 -11 -7 -16 -4 -5 4 -9 1 -9 -5 0 -6 11 -8 25 -6 39 7 48 16 34 32 -6 8 -9 17 -5 21 3 3 6 1 6 -5 0 -7 5 -12 11 -12 5 0 8 3 6 8 -3 4 6 8 19 8 13 1 24 -2 24 -7 0 -5 -3 -8 -7 -8 -19 3 -30 -2 -30 -14 0 -8 6 -14 13 -14 7 0 10 6 8 12 -6 15 27 16 45 1 11 -8 13 -8 7 2 -7 12 4 16 32 13 6 -1 12 3 12 9 0 6 -6 8 -12 4 -10 -6 -10 -4 0 7 22 24 13 33 -11 11 -18 -17 -24 -19 -24 -8 0 8 4 13 8 10 4 -2 13 4 18 13 10 17 12 17 26 -1 14 -19 15 -18 24 5 10 24 10 24 10 2 1 -21 -9 -28 -32 -24 -5 1 -6 -3 -2 -9 3 -6 11 -8 16 -5 5 4 9 0 10 -7 0 -7 5 -2 11 12 6 14 11 28 10 31 0 3 5 6 13 6 8 0 14 -3 13 -6 -2 -20 3 -31 12 -26 5 3 7 12 4 19 -3 8 -1 17 5 21 6 3 9 0 5 -8 -3 -8 -1 -18 4 -21 14 -9 43 4 36 16 -3 5 -12 4 -20 -3 -12 -10 -13 -9 -8 5 4 10 13 15 22 11 17 -6 54 23 46 36 -5 9 24 1 41 -11 6 -4 20 -11 33 -14 17 -6 22 -3 22 11 0 12 -3 14 -8 6 -5 -8 -14 -7 -31 6 -18 14 -21 20 -11 26 8 5 11 4 7 -2 -4 -6 0 -14 9 -17 23 -9 26 -8 18 7 -5 8 -2 8 9 -2 18 -14 24 -2 7 15 -7 7 -6 11 4 11 10 0 13 -10 11 -31 -2 -17 -1 -25 2 -18 2 6 8 10 13 7 14 -9 102 34 97 48 -3 6 -8 21 -11 32 -5 15 -4 15 5 -2 7 -13 16 -23 21 -23 5 0 6 -6 2 -12 -5 -9 -2 -9 9 1 20 16 23 32 4 25 -8 -3 -14 2 -14 10 0 11 5 13 18 5 10 -5 21 -14 24 -19 4 -6 11 -8 16 -4 5 3 7 10 4 15 -4 5 2 9 13 9 10 0 31 11 45 24 14 13 28 21 31 18 3 -3 6 0 6 7 0 7 5 9 12 5 7 -4 8 -3 4 4 -4 7 -2 20 4 29 9 14 10 14 7 2 -3 -9 1 -16 8 -16 7 0 12 8 10 18 -2 10 1 22 7 25 7 4 8 2 4 -4 -4 -7 -3 -12 3 -12 5 0 15 8 20 17 6 10 11 14 11 10 0 -5 38 29 84 74 46 46 82 87 80 91 -3 5 2 8 11 8 9 0 14 4 10 9 -3 5 4 12 14 16 13 4 18 11 14 22 -4 10 -2 14 5 9 6 -3 13 3 17 14 3 11 11 20 16 20 5 0 9 7 9 16 0 8 5 12 10 9 9 -6 14 8 11 28 0 4 6 7 15 7 8 0 13 4 10 8 -3 5 8 19 24 30 17 13 27 28 24 36 -3 7 2 16 12 20 13 5 14 9 5 20 -10 12 -8 13 9 9 16 -4 19 -2 14 11 -4 11 -1 16 10 16 13 0 15 4 7 19 -9 16 -8 18 9 14 16 -4 19 -2 13 12 -5 14 -3 16 7 10 9 -5 11 -4 6 4 -12 18 -18 69 -7 51 5 -8 7 -18 5 -22 -3 -4 2 -8 11 -8 9 0 14 4 10 9 -3 6 3 15 12 21 15 9 14 10 -7 6 -14 -3 -20 -3 -13 0 8 4 9 13 3 30 -7 17 -7 23 0 19 6 -3 10 -13 10 -21 0 -8 4 -14 10 -14 5 0 6 7 3 17 -5 11 -3 14 6 8 11 -6 11 -3 0 16 -12 23 -11 23 6 9 15 -12 17 -12 10 -1 -12 20 -16 89 -5 71 5 -8 7 -22 4 -32 -2 -9 1 -20 8 -24 7 -4 10 -4 6 0 -4 5 -3 19 2 31 6 16 5 25 -3 29 -8 3 -3 12 13 26 21 19 22 21 5 16 -20 -6 -20 -6 -1 9 11 8 16 15 12 15 -5 0 -3 6 3 14 10 12 8 13 -8 9 -12 -3 -18 -10 -14 -16 3 -6 1 -7 -5 -3 -17 10 -15 14 17 31 24 12 29 20 25 41 -3 15 -1 23 5 20 5 -3 8 2 7 11 -2 10 1 28 5 41 10 27 19 67 24 107 3 31 -11 59 -26 49 -15 -9 -10 6 7 23 14 15 15 14 12 -2 -2 -10 4 -20 12 -23 8 -3 12 -1 8 3 -4 5 -2 15 5 23 9 13 9 14 0 8 -7 -4 -13 -2 -13 3 0 6 6 11 13 11 6 1 1 7 -13 15 -14 7 -24 16 -22 19 6 16 1 26 -10 20 -7 -4 -10 -4 -6 1 4 4 3 14 -4 22 -6 7 -9 16 -6 18 2 3 15 -13 29 -35 34 -56 42 -52 42 23 0 9 5 17 11 17 6 0 5 4 -3 9 -9 6 -11 15 -6 27 12 29 13 74 2 81 -6 3 -7 2 -4 -4 11 -18 -23 -10 -40 9 -13 15 -14 18 -2 13 10 -4 20 3 29 19 7 14 16 23 20 21 6 -4 8 16 10 98 1 23 5 35 12 31 5 -4 4 4 -3 17 -15 28 -15 29 3 40 9 6 6 9 -11 9 -21 0 -22 -2 -10 -17 8 -9 9 -14 3 -10 -6 3 -11 0 -11 -8 0 -8 4 -12 9 -9 4 3 8 1 8 -5 0 -5 -4 -12 -8 -15 -4 -2 -7 -26 -7 -53 1 -46 -28 -113 -43 -98 -4 3 0 10 8 16 13 8 13 10 0 20 -13 9 -12 10 2 5 10 -3 20 -1 23 4 8 13 -18 18 -38 8 -10 -5 -21 -7 -25 -4 -3 3 0 6 7 6 7 0 9 5 6 10 -4 6 -3 9 2 8 20 -5 52 14 46 28 -5 12 -7 12 -18 -2 -6 -9 -18 -14 -26 -11 -10 4 -9 6 4 6 10 1 15 6 12 11 -5 9 7 14 26 12 4 -1 7 10 7 23 0 14 -4 25 -9 25 -5 0 -9 -8 -9 -17 -1 -17 -1 -17 -11 0 -6 10 -15 14 -22 10 -7 -4 -6 0 2 10 7 9 11 24 7 32 -3 10 -2 14 5 9 6 -3 8 -15 6 -26 -4 -14 -2 -18 10 -14 8 3 17 6 19 6 2 0 -3 11 -12 25 -9 14 -13 25 -9 25 5 0 0 9 -10 20 -16 18 -19 18 -30 3 -9 -13 -14 -13 -20 -3 -6 9 -4 11 5 5 10 -6 12 -3 8 13 -4 12 -1 25 5 29 7 3 9 3 5 -2 -4 -4 0 -14 10 -21 26 -21 37 -16 17 6 -18 20 -18 21 1 14 17 -7 17 -6 5 9 -7 9 -17 14 -22 11 -5 -3 -9 0 -9 5 0 14 13 14 28 -1 16 -16 15 3 -2 24 -9 12 -16 14 -24 6 -7 -7 -17 -6 -33 6 -13 9 -18 16 -12 16 7 0 15 -4 18 -10 3 -5 11 -10 17 -10 7 0 6 6 -2 15 -9 10 -9 15 -1 15 6 0 11 -4 11 -8 0 -5 7 -9 15 -9 8 0 15 5 15 11 0 6 8 2 18 -7 15 -16 15 -19 2 -27 -11 -7 -11 -10 -2 -10 7 0 11 -4 7 -9 -3 -5 -1 -12 5 -16 6 -4 7 -11 4 -17 -5 -7 -2 -8 6 -3 9 5 11 4 6 -3 -5 -8 -1 -10 9 -5 13 5 14 7 3 14 -10 7 -10 9 2 9 13 0 13 1 0 10 -12 8 -12 10 5 11 17 0 18 1 3 7 -13 5 -15 11 -8 22 8 12 10 12 10 1 0 -8 2 -12 5 -9 10 10 -8 39 -21 34 -7 -3 -16 0 -20 6 -4 7 -3 8 4 4 7 -4 12 -2 12 4 0 6 4 9 9 6 14 -9 21 20 8 33 -8 8 -8 11 1 11 7 0 12 4 12 10 0 5 -8 7 -17 4 -14 -4 -13 -1 4 14 l22 19 -22 23 c-19 19 -19 22 -4 17 11 -4 16 -3 12 3 -3 6 0 10 7 10 8 1 4 8 -9 19 -12 10 -19 21 -16 25 3 3 12 1 20 -6 11 -8 12 -7 7 6 -7 18 -34 22 -34 4 0 -12 -15 -2 -15 10 0 4 -4 13 -9 20 -7 11 -4 12 13 3 18 -10 20 -9 14 5 -4 11 -3 15 5 10 6 -3 16 3 22 14 11 20 10 21 -12 24 -6 0 -13 7 -16 14 -2 7 2 11 8 10 23 -5 21 20 -2 43 -17 16 -19 20 -5 16 9 -4 17 -2 17 3 0 6 -6 10 -12 10 -10 0 -9 3 1 9 11 7 11 9 0 14 -10 4 -9 6 4 6 9 1 17 5 17 11 0 5 -8 7 -17 4 -17 -5 -17 -5 -1 8 15 13 15 15 0 25 -16 11 -16 12 1 12 9 1 17 5 17 11 0 12 -22 9 -32 -5 -4 -5 -8 -1 -8 11 0 12 -7 21 -15 21 -8 0 -15 -4 -15 -9 0 -4 5 -8 11 -8 6 0 8 -7 5 -16 -4 -10 -2 -13 6 -8 7 5 8 3 3 -6 -6 -9 -4 -11 6 -5 11 7 12 6 2 -6 -10 -12 -10 -18 0 -29 10 -10 9 -11 -3 -5 -12 6 -13 5 -2 -6 10 -11 8 -16 -10 -27 -13 -7 -16 -11 -7 -9 9 3 16 -1 16 -9 0 -7 -4 -11 -8 -8 -4 2 -6 -5 -4 -16 2 -11 0 -18 -6 -15 -5 4 -9 1 -9 -5 0 -7 9 -9 23 -6 12 3 16 3 9 0 -6 -3 -10 -10 -7 -15 4 -5 -1 -6 -9 -3 -9 3 -16 1 -16 -6 0 -6 5 -8 10 -5 6 3 10 1 10 -4 0 -15 -15 -14 -29 3 -6 7 -8 22 -4 32 6 16 4 17 -8 7 -10 -8 -19 -9 -29 -2 -12 8 -11 9 4 7 10 -2 21 3 24 11 2 8 0 11 -5 8 -5 -3 -15 3 -22 14 -11 18 -9 21 8 26 23 6 27 18 11 28 -5 3 -10 12 -10 18 0 8 3 7 9 -2 7 -11 13 -7 25 16 14 28 13 43 -5 43 -4 0 -6 -7 -5 -16 0 -9 -5 -19 -11 -21 -7 -3 -13 0 -13 7 0 6 5 8 10 5 6 -3 10 -1 10 4 0 6 -6 11 -12 11 -11 0 30 35 42 35 3 0 11 4 18 8 8 6 11 4 10 -4 -2 -7 6 -14 17 -16 18 -3 18 -2 2 5 -22 9 -23 18 -3 38 18 17 10 48 -11 40 -7 -3 -16 1 -20 9 -4 12 -9 13 -18 5 -10 -8 -20 -7 -39 5 -14 10 -26 20 -26 22 0 3 11 -2 25 -11 28 -19 44 -21 27 -4 -8 8 -6 16 10 29 11 10 25 16 29 13 5 -3 9 0 9 7 0 8 4 8 15 -1 13 -11 14 -10 9 4 -4 11 -14 15 -30 12 -14 -3 -22 -1 -19 4 3 4 -2 11 -11 14 -12 4 -14 1 -9 -14 4 -11 2 -20 -3 -20 -7 0 -9 31 -3 49 0 2 12 -4 26 -13 15 -10 25 -12 25 -6 0 6 5 8 10 5 6 -3 10 -1 10 5 0 7 -7 10 -15 7 -28 -11 -28 17 1 40 l29 25 -33 -17 c-29 -14 -35 -14 -54 0 -13 8 -17 15 -11 15 7 0 15 -4 18 -10 3 -5 11 -10 16 -10 6 0 1 13 -10 28 -18 26 -19 31 -6 49 13 18 13 22 0 27 -12 4 -13 10 -4 29 13 29 46 52 46 31 0 -7 -5 -10 -10 -7 -5 3 -7 0 -5 -8 3 -8 2 -21 -3 -30 -6 -12 -3 -21 8 -30 15 -12 16 -12 10 3 -3 10 -2 20 3 23 5 3 6 13 3 22 -5 12 -3 14 8 8 11 -7 12 -6 2 6 -6 8 -13 19 -15 24 -1 6 -8 9 -15 9 -6 -1 -9 5 -6 14 5 11 3 13 -8 7 -8 -5 -4 3 9 17 26 29 28 38 6 38 -8 0 -12 -4 -9 -10 3 -6 2 -10 -4 -10 -11 0 -26 38 -23 57 2 7 -6 10 -17 8 -14 -3 -18 1 -14 12 4 10 8 11 13 3 4 -6 11 -11 16 -11 5 1 10 -8 10 -19 2 -31 9 -33 30 -8 16 19 16 20 1 9 -15 -12 -17 -12 -11 3 4 10 -2 23 -16 34 -21 17 -21 18 -4 32 17 14 18 13 6 -1 -10 -14 -10 -18 3 -22 11 -5 14 -1 11 16 -3 12 -5 22 -6 22 -1 0 -7 27 -14 62 -1 7 -5 16 -9 19 -4 4 -1 14 6 22 9 13 9 14 0 8 -7 -4 -13 -3 -13 3 0 5 -8 12 -17 14 -17 4 -17 5 0 6 9 0 17 6 17 12 0 6 -9 8 -22 4 -19 -5 -20 -4 -6 4 13 9 14 15 5 35 -7 13 -16 22 -22 18 -5 -3 -4 1 3 10 13 16 6 52 -8 43 -4 -3 -10 4 -13 16 -5 18 -3 18 11 7 16 -12 16 -11 2 6 -8 11 -14 27 -12 38 2 10 -1 18 -7 18 -6 0 -7 -8 -4 -17 6 -15 5 -16 -9 -3 -9 8 -12 17 -7 18 5 2 9 10 9 18 0 9 -4 12 -10 9 -5 -3 -10 -3 -11 2 0 4 -2 20 -3 35 -2 36 -26 62 -26 29 0 -14 4 -20 12 -15 7 4 8 3 4 -5 -4 -6 -12 -9 -17 -6 -14 9 -11 45 5 51 11 4 8 11 -10 31 -13 14 -21 30 -18 35 4 7 0 7 -12 1 -11 -6 -30 -7 -44 -2 -23 7 -24 7 -3 8 16 1 21 5 16 17 -4 11 -9 12 -16 5 -6 -6 -15 -11 -21 -11 -5 0 -1 7 10 14 17 13 21 13 35 -6 12 -16 18 -18 24 -8 6 9 4 11 -4 6 -8 -5 -11 -2 -9 9 4 21 -30 29 -49 13 -7 -6 -13 -6 -13 -2 0 5 9 15 21 22 22 14 21 37 -2 37 -8 0 -15 6 -15 13 -1 6 -2 17 -3 23 0 5 -4 8 -8 6 -5 -3 -14 1 -21 9 -7 8 -10 14 -6 14 3 0 1 7 -6 15 -10 12 -10 15 1 15 12 0 12 2 0 9 -8 5 -20 7 -27 4 -6 -2 -15 1 -20 8 -4 7 -3 10 4 5 6 -3 14 -1 18 6 4 7 4 10 -1 6 -13 -12 -37 13 -26 26 6 8 6 17 -1 26 -8 13 -9 12 -5 -2 3 -9 3 -19 -1 -22 -10 -11 -11 -36 0 -30 6 4 5 -2 -1 -15 -13 -24 -26 -29 -17 -6 3 8 1 15 -4 15 -6 0 -10 -5 -10 -12 0 -6 -3 -8 -7 -4 -5 4 0 14 10 21 14 10 15 15 6 21 -7 4 -15 2 -17 -4 -2 -7 -8 -12 -14 -12 -6 0 -5 6 2 15 7 9 19 14 27 11 18 -7 16 9 -4 30 -12 12 -14 19 -6 21 11 4 -37 57 -60 67 -8 3 -7 8 3 16 13 10 12 11 -3 6 -11 -4 -20 0 -24 11 -3 9 -20 29 -37 46 -17 16 -30 34 -28 39 1 5 -2 7 -8 3 -9 -6 -15 8 -11 29 1 5 -5 4 -13 -3 -13 -11 -17 -9 -26 13 -5 15 -17 29 -25 33 -9 3 -27 15 -40 26 -13 12 -36 21 -52 22 -23 0 -27 4 -25 23 2 12 -2 22 -8 22 -6 0 -8 -5 -4 -12 4 -7 3 -8 -5 -4 -6 4 -8 12 -5 18 5 8 1 9 -11 4 -18 -6 -18 -6 1 15 19 22 19 22 -2 11 -25 -13 -46 2 -36 27 5 14 3 14 -10 3 -18 -14 -27 -6 -23 20 2 11 -2 15 -11 11 -8 -3 -17 2 -20 11 -3 9 -10 13 -15 10 -5 -3 -9 2 -9 11 0 9 -4 13 -10 10 -5 -3 -10 -1 -10 5 0 6 -4 8 -10 5 -6 -3 -10 4 -11 17 0 22 -1 22 -9 3 -8 -19 -9 -19 -9 3 -1 20 -16 28 -44 23 -5 -1 -5 3 -2 10 7 10 -26 49 -42 49 -5 0 -23 14 -42 30 -18 17 -37 28 -42 25 -5 -4 -9 1 -9 9 0 9 -4 16 -10 16 -5 0 -19 10 -31 23 -12 12 -18 15 -14 7 5 -8 -4 -2 -18 13 -15 15 -32 25 -37 22 -6 -3 -10 1 -10 9 0 14 -12 20 -32 17 -5 0 -8 4 -8 10 0 13 -21 33 -40 37 -8 2 -18 10 -23 17 -4 8 -21 20 -37 29 -17 8 -27 10 -24 4 4 -7 2 -8 -4 -4 -7 4 -12 15 -12 24 0 15 -2 15 -10 2 -8 -12 -10 -12 -10 5 0 17 -2 17 -10 5 -8 -13 -10 -12 -10 3 0 9 -5 17 -11 17 -5 0 -7 -5 -3 -12 4 -7 3 -8 -4 -4 -6 4 -9 13 -5 21 4 11 -3 15 -28 16 -19 1 -37 1 -41 0 -5 0 -7 2 -7 7 1 4 1 14 0 22 -1 12 -3 13 -10 1 -7 -11 -10 -9 -16 9 -6 17 -9 19 -16 9 -7 -12 -10 -12 -21 0 -11 12 -10 12 2 6 13 -8 13 -7 1 8 -13 16 -14 16 -27 0 -12 -17 -13 -16 -9 5 3 16 0 20 -8 15 -20 -13 -36 -12 -31 2 3 7 0 16 -7 21 -8 5 -10 3 -5 -7 4 -8 1 -6 -7 4 -10 12 -17 15 -22 7 -5 -8 -12 -7 -24 4 -14 13 -20 13 -30 3 -10 -9 -11 -9 -6 4 4 10 -3 22 -19 33 -15 9 -26 14 -26 10 0 -4 -6 -2 -12 3 -7 6 -21 9 -30 8 -12 -2 -15 2 -11 13 5 14 3 15 -7 5 -11 -10 -17 -8 -31 9 -16 18 -21 19 -36 7 -11 -9 -14 -10 -9 -1 4 7 2 12 -7 12 -8 0 -18 7 -21 16 -4 9 -9 14 -13 11 -3 -4 -13 -1 -21 6 -13 9 -14 9 -8 0 4 -7 2 -13 -3 -13 -6 0 -11 4 -11 9 0 14 -29 21 -36 9 -4 -6 -3 -8 4 -4 6 3 13 2 16 -3 7 -10 -20 -9 -30 2 -4 4 -15 7 -25 7 -9 0 -20 7 -23 16 -4 9 -9 14 -13 10 -3 -3 -15 2 -26 11 -19 18 -20 17 -7 -7 7 -14 9 -22 5 -18 -5 4 -15 2 -24 -5 -14 -11 -14 -10 -2 6 9 12 10 17 2 17 -7 0 -9 4 -6 10 4 6 -1 7 -11 3 -13 -5 -15 -3 -9 7 5 8 4 11 -3 6 -6 -3 -13 -2 -17 4 -3 5 -12 10 -18 10 -7 0 -4 -5 6 -11 9 -5 17 -18 16 -27 0 -11 -2 -12 -6 -4 -3 7 -18 19 -33 27 -22 11 -30 12 -33 2 -3 -6 -6 -3 -6 8 -1 17 -3 17 -11 5 -9 -13 -10 -13 -10 0 0 13 -1 13 -10 0 -6 -10 -10 -11 -10 -2 0 7 -13 12 -31 12 -21 0 -28 4 -23 13 5 8 2 8 -9 -2 -9 -7 -17 -9 -17 -4 0 6 -11 9 -25 7 -14 -1 -32 4 -40 13 -10 9 -15 10 -15 3 0 -7 -7 -10 -15 -6 -8 3 -15 0 -16 -7 0 -7 -4 -3 -9 8 -5 11 -9 14 -9 6 -1 -11 -4 -11 -16 -1 -10 9 -15 9 -15 1 0 -6 -5 -11 -11 -11 -5 0 -7 5 -4 10 9 14 -8 12 -24 -2 -11 -10 -13 -10 -7 0 5 7 1 12 -9 12 -10 0 -14 5 -10 13 4 6 0 4 -7 -5 -13 -15 -15 -15 -24 0 -9 13 -12 13 -19 2 -5 -9 -4 -11 3 -6 7 4 12 2 12 -3 0 -15 -13 -14 -28 1 -16 16 -75 18 -62 3 6 -7 3 -11 -9 -11 -10 0 -17 5 -14 11 2 7 -3 12 -12 12 -10 0 -14 -6 -10 -15 4 -12 2 -12 -8 -4 -8 7 -18 8 -22 4 -5 -4 -5 2 -1 12 5 16 4 17 -9 6 -8 -7 -15 -9 -15 -4 0 5 -4 3 -9 -5 -5 -7 -14 -10 -20 -7 -6 4 -9 11 -6 16 3 5 0 12 -6 16 -7 4 -9 3 -6 -3z m197 -29 c0 -8 -19 -13 -24 -6 -3 5 1 9 9 9 8 0 15 -2 15 -3z m753 -164 c3 -11 1 -18 -4 -14 -5 3 -9 12 -9 20 0 20 7 17 13 -6z m-1673 -14 c0 -2 -7 -9 -15 -16 -13 -11 -14 -10 -9 4 5 14 24 23 24 12z m1740 -17 c0 -6 -4 -7 -10 -4 -5 3 -10 11 -10 16 0 6 5 7 10 4 6 -3 10 -11 10 -16z m-1780 -3 c0 -2 -8 -10 -17 -17 -16 -13 -17 -12 -4 4 13 16 21 21 21 13z m-94 -78 c4 -7 3 -8 -4 -4 -7 4 -12 0 -12 -10 0 -10 -3 -15 -6 -11 -7 6 2 37 10 37 3 0 8 -5 12 -12z m70 0 c4 -7 4 -10 -1 -6 -4 4 -15 2 -24 -5 -14 -11 -14 -10 -2 6 16 20 18 21 27 5z m-146 -18 c0 -5 -5 -10 -11 -10 -5 0 -7 5 -4 10 3 6 8 10 11 10 2 0 4 -4 4 -10z m32 -22 c-6 -6 -12 -6 -17 3 -5 8 -4 10 3 5 7 -4 12 0 13 11 0 12 2 13 6 5 3 -8 1 -18 -5 -24z m-16 -19 c3 -5 -6 -5 -20 1 -15 5 -26 6 -26 0 0 -5 -9 -8 -19 -7 -11 0 -17 5 -15 9 3 5 9 6 14 3 5 -3 11 -1 14 4 7 10 43 3 52 -10z m51 -14 c0 -8 -4 -12 -9 -9 -5 3 -6 10 -3 15 9 13 12 11 12 -6z m-57 -12 c0 -3 -6 -3 -12 0 -7 2 -19 -3 -26 -12 -11 -14 -12 -13 -2 6 6 14 16 20 25 17 8 -4 15 -8 15 -11z m0 -27 c0 -2 -7 -7 -16 -10 -8 -3 -12 -2 -9 4 6 10 25 14 25 6z m-89 -79 c-10 -9 -11 -8 -5 6 3 10 9 15 12 12 3 -3 0 -11 -7 -18z m-52 -52 c0 -5 -4 -3 -9 5 -5 8 -9 22 -9 30 0 16 17 -16 18 -35z m2661 35 c0 -5 -2 -10 -4 -10 -3 0 -8 5 -11 10 -3 6 -1 10 4 10 6 0 11 -4 11 -10z m-2687 -45 c-3 -9 -8 -14 -10 -11 -3 3 -2 9 2 15 9 16 15 13 8 -4z m-133 -40 c0 -2 -9 -3 -19 -2 -11 0 -18 5 -15 9 4 6 34 0 34 -7z m65 -63 c-3 -3 -11 0 -18 7 -9 10 -8 11 6 5 10 -3 15 -9 12 -12z m-30 -32 c4 -6 -1 -7 -11 -3 -12 4 -15 3 -10 -5 4 -7 2 -12 -3 -12 -12 0 -14 13 -4 23 9 10 21 9 28 -3z m-140 -20 c10 9 13 7 11 -6 -2 -10 -8 -20 -14 -22 -7 -2 -10 -8 -7 -13 3 -5 -1 -21 -10 -36 -15 -25 -14 -16 1 21 3 8 -3 23 -14 34 -15 15 -17 23 -9 31 8 8 13 7 20 -4 6 -12 12 -13 22 -5z m-70 -50 c-3 -5 -10 -10 -16 -10 -5 0 -9 5 -9 10 0 6 7 10 16 10 8 0 12 -4 9 -10z m-70 -48 c-6 -7 -35 18 -35 31 0 5 9 2 20 -8 11 -10 18 -20 15 -23z m245 34 c0 -3 -4 -8 -10 -11 -5 -3 -10 -1 -10 4 0 6 5 11 10 11 6 0 10 -2 10 -4z m-218 -21 c0 -8 1 -21 2 -27 1 -7 -6 -14 -14 -14 -8 -1 -24 -3 -35 -4 l-20 -1 20 -8 c11 -5 23 -7 27 -4 5 2 18 6 30 8 12 3 26 9 32 15 8 8 6 9 -6 5 -11 -4 -18 -2 -18 5 0 6 4 8 10 5 6 -3 7 1 3 10 -5 14 -8 14 -15 3 -8 -10 -9 -10 -5 2 4 17 27 21 28 5 2 -20 22 -35 40 -30 11 4 19 2 19 -4 0 -6 -3 -10 -7 -10 -22 4 -33 -2 -27 -13 4 -7 4 -10 -1 -6 -11 11 -36 -12 -28 -26 4 -7 1 -6 -7 1 -10 9 -17 10 -27 1 -10 -8 -19 -6 -35 8 -15 14 -22 16 -25 7 -3 -7 -9 -13 -15 -13 -6 0 -8 7 -5 15 4 8 1 17 -5 21 -7 4 -8 3 -4 -4 4 -7 2 -12 -3 -12 -6 0 -10 -5 -8 -12 2 -11 -2 -13 -35 -17 -8 -1 -9 -4 -3 -9 18 -13 17 -35 -2 -28 -16 6 -16 6 1 -13 13 -14 14 -21 5 -27 -7 -4 -10 -3 -5 4 3 6 -3 16 -14 22 -12 6 -18 16 -13 23 4 7 -2 5 -12 -3 -16 -13 -18 -13 -13 0 3 8 15 14 27 13 12 -2 20 1 16 6 -3 5 -1 12 5 16 6 4 8 11 5 16 -3 5 1 6 9 3 9 -3 17 3 21 16 4 14 12 19 22 16 22 -9 73 21 67 39 -4 8 -1 15 5 15 6 0 12 -7 13 -15z m-41 -98 c-7 -7 -5 -14 7 -24 15 -13 14 -13 -6 -3 -23 11 -46 5 -37 -10 3 -4 -5 -6 -17 -2 -16 4 -19 2 -13 -9 5 -8 4 -11 -1 -6 -10 10 -14 58 -3 51 4 -2 10 0 14 5 3 6 12 8 19 5 8 -3 17 0 21 5 3 6 11 8 17 5 6 -4 6 -10 -1 -17z m-157 -59 c-2 -9 0 -19 5 -23 7 -3 8 0 5 9 -3 9 -1 16 6 16 6 0 8 5 4 13 -5 7 0 6 11 -3 16 -14 16 -15 1 -18 -9 -2 -14 -7 -11 -11 2 -5 -4 -16 -15 -26 -11 -10 -20 -14 -20 -9 0 5 -5 2 -11 -6 -9 -13 -10 -12 -5 3 3 9 2 17 -3 17 -5 0 -17 -8 -28 -17 -10 -10 -14 -15 -9 -10 17 12 25 8 23 -12 0 -11 -5 -17 -9 -15 -4 3 -8 -1 -8 -8 0 -8 -5 -6 -11 5 -5 9 -15 17 -21 17 -7 0 -7 -4 1 -13 6 -8 8 -17 4 -20 -3 -4 -1 -7 5 -7 7 0 12 -5 12 -11 0 -8 -4 -8 -15 1 -15 13 -39 5 -30 -11 3 -5 -1 -6 -9 -3 -10 4 -16 1 -16 -7 0 -8 -5 -6 -13 5 -12 16 -14 16 -26 2 -7 -8 -18 -13 -25 -10 -8 3 -20 -2 -29 -11 -10 -9 -18 -11 -22 -5 -3 5 0 10 7 11 10 0 10 2 0 6 -6 2 -9 10 -6 15 4 7 2 8 -4 4 -7 -4 -12 -3 -12 3 0 6 9 15 20 21 17 9 20 8 17 -12 -1 -16 2 -22 13 -19 8 2 21 4 28 4 16 0 6 10 -13 13 -8 1 -15 -3 -15 -9 0 -5 -2 -8 -5 -5 -8 8 6 39 15 33 13 -8 76 75 72 94 -5 21 2 13 23 -28 12 -24 13 -32 3 -28 -7 2 -12 10 -10 17 5 21 -26 -8 -33 -31 -4 -10 -13 -19 -21 -19 -8 0 -14 -5 -14 -10 0 -7 6 -7 20 0 13 7 20 7 20 1 0 -7 9 -6 25 1 19 8 22 14 13 20 -7 4 -8 8 -2 8 5 0 19 7 30 15 16 13 16 14 2 9 -10 -3 -18 -1 -18 5 0 6 4 10 9 9 5 -2 16 6 24 17 12 16 17 17 30 7 13 -11 17 -10 25 4 5 9 7 26 5 38 -4 17 -3 18 6 6 6 -8 8 -22 5 -32z m136 -12 c-7 -7 -13 -7 -20 0 -6 6 -3 10 10 10 13 0 16 -4 10 -10z m55 4 c3 -5 1 -10 -4 -10 -6 0 -11 5 -11 10 0 6 2 10 4 10 3 0 8 -4 11 -10z m-325 -70 c-9 -6 -9 -9 1 -13 10 -4 9 -6 -3 -6 -20 -1 -21 0 -12 23 3 9 11 13 16 10 6 -4 6 -9 -2 -14z m4090 -53 c0 -4 12 -12 26 -17 19 -8 24 -15 19 -30 -4 -14 -2 -20 7 -18 7 2 12 -3 11 -9 -2 -7 1 -13 7 -13 6 0 10 4 10 10 0 5 18 -10 41 -35 40 -43 46 -61 21 -59 -7 1 -11 -3 -9 -10 3 -6 11 -9 18 -8 29 7 34 7 32 -5 -2 -7 1 -13 6 -13 17 0 71 -52 65 -61 -3 -6 -1 -15 5 -22 7 -9 5 -16 -9 -25 -22 -14 -39 3 -21 21 19 19 12 31 -8 13 -20 -18 -65 -31 -56 -15 4 5 10 7 14 4 5 -2 16 1 25 8 16 12 16 14 2 26 -8 7 -12 20 -9 29 6 15 5 15 -10 3 -17 -13 -17 -15 0 -33 15 -16 15 -18 1 -13 -20 8 -31 32 -18 40 6 4 10 12 10 18 -1 7 -10 1 -21 -13 -12 -14 -20 -18 -19 -10 4 28 0 41 -10 35 -6 -4 -9 -1 -8 7 2 7 -3 12 -10 10 -8 -1 -11 2 -6 9 5 9 2 10 -12 6 -15 -6 -13 -3 5 11 16 13 20 22 12 26 -6 4 -11 1 -11 -6 -1 -8 -6 -6 -15 6 -8 10 -12 23 -9 27 3 5 0 9 -5 9 -6 0 -11 -8 -12 -17 0 -15 -2 -15 -8 2 -5 11 -7 23 -4 28 2 4 -7 11 -21 17 -28 10 -36 23 -12 18 8 -2 15 2 15 7 1 6 -5 11 -12 11 -6 1 -16 3 -22 4 -5 1 -13 2 -17 1 -4 0 -5 8 -3 19 2 11 0 22 -6 25 -5 4 -9 1 -9 -5 0 -6 -5 -8 -11 -4 -8 4 -7 9 2 14 13 8 49 -9 49 -23z m-4223 -23 c-3 -4 -2 -14 3 -24 14 -26 -21 -56 -48 -41 -11 6 -22 7 -26 4 -3 -3 -6 -1 -6 6 0 7 6 11 13 8 7 -3 24 4 38 14 19 16 20 18 4 12 -18 -6 -18 -5 -6 10 7 9 18 17 24 17 6 0 7 -3 4 -6z m81 -99 c-3 -3 -9 2 -12 12 -6 14 -5 15 5 6 7 -7 10 -15 7 -18z m-172 6 c-7 -11 22 -23 35 -15 5 3 6 10 3 16 -4 6 -2 8 4 5 23 -15 0 -58 -29 -54 -23 4 -50 27 -31 27 7 0 11 3 11 8 -2 12 1 22 7 22 3 0 3 -4 0 -9z m309 -9 c-3 -3 -11 0 -18 7 -9 10 -8 11 6 5 10 -3 15 -9 12 -12z m-178 -42 c-2 -23 -10 -17 -12 10 -1 10 2 17 6 14 4 -2 7 -13 6 -24z m53 15 c-7 -8 -17 -15 -23 -15 -6 0 -2 7 9 15 25 19 30 19 14 0z m-221 -19 c17 -21 7 -61 -15 -61 -10 0 -20 -6 -20 -12 -1 -7 -3 -16 -4 -20 -1 -5 -2 -11 -1 -15 0 -7 -16 -5 -41 7 -10 4 -15 12 -11 19 4 6 -1 5 -11 -3 -9 -8 -15 -20 -12 -26 2 -7 0 -17 -6 -23 -8 -8 -7 -16 2 -27 11 -13 11 -16 0 -13 -8 2 -14 -1 -15 -7 -1 -22 -16 -33 -40 -30 -14 1 -28 -2 -31 -7 -3 -4 -9 -6 -14 -3 -4 3 -11 -2 -14 -10 -3 -9 1 -18 9 -21 15 -6 21 -25 8 -23 -20 3 -34 -2 -28 -10 3 -5 1 -12 -5 -16 -6 -4 -8 -11 -5 -16 4 -5 0 -9 -7 -9 -9 0 -9 -3 2 -10 11 -8 6 -9 -17 -5 -32 5 -44 -7 -23 -20 8 -5 8 -11 1 -19 -6 -7 -8 -15 -5 -19 3 -3 1 -14 -5 -24 -7 -11 -11 -13 -11 -4 0 8 -7 4 -18 -10 -20 -23 -38 -14 -21 11 7 13 9 13 9 0 0 -13 1 -13 10 0 5 8 7 24 4 35 -4 14 -3 16 4 7 7 -11 11 -10 20 1 9 11 8 18 -8 32 -20 18 -20 18 5 43 14 13 22 28 20 33 -3 4 7 15 23 23 16 8 29 22 29 30 0 8 -4 13 -9 10 -5 -3 -6 -10 -3 -15 4 -5 1 -9 -4 -9 -6 0 -11 3 -11 8 1 11 30 47 30 37 0 -5 15 5 33 23 24 23 36 29 47 22 10 -7 11 -10 3 -10 -7 0 -15 0 -18 0 -11 -1 -51 -46 -47 -54 3 -5 9 -1 14 8 5 9 14 13 21 9 19 -12 38 -12 31 -1 -5 7 -2 8 6 3 9 -5 11 -4 6 4 -6 9 -11 9 -21 1 -8 -7 -16 -7 -19 -2 -7 11 22 25 34 17 5 -3 7 4 5 15 -2 11 2 20 8 20 8 0 8 3 2 8 -12 8 -14 32 -2 32 4 0 16 9 27 20 26 26 40 26 35 0 -2 -12 0 -18 6 -15 5 4 6 11 3 17 -4 7 -2 8 4 4 7 -4 12 -3 12 3 0 5 -6 12 -12 15 -7 3 -2 3 10 0 21 -5 23 -3 17 18 -7 22 -6 22 7 4 11 -14 17 -16 22 -7 11 18 -14 44 -29 31 -9 -8 -14 -7 -17 2 -3 8 -7 6 -11 -6 -4 -10 -3 -15 3 -11 6 3 10 2 10 -3 0 -16 -32 -23 -47 -11 -11 10 -9 15 14 28 35 22 68 24 82 7z m-11 -31 c-3 -3 -9 2 -12 12 -6 14 -5 15 5 6 7 -7 10 -15 7 -18z m413 -2 c13 -16 12 -17 -3 -4 -10 7 -18 15 -18 17 0 8 8 3 21 -13z m-555 -86 c3 -19 -4 -21 -26 -7 -11 7 -11 10 -2 10 7 0 10 5 6 11 -4 7 -1 10 6 7 7 -2 14 -12 16 -21z m4705 -30 c-6 -8 -7 -18 -3 -22 4 -5 1 -5 -6 -1 -10 6 -10 11 -1 22 6 8 14 14 16 14 3 0 0 -6 -6 -13z m33 -63 c3 -8 2 -12 -4 -9 -6 3 -10 10 -10 16 0 14 7 11 14 -7z m113 -1 c-4 -3 -1 -13 6 -21 10 -13 9 -14 -2 -8 -10 7 -12 3 -6 -15 l7 -24 -18 25 c-10 14 -23 29 -28 33 -7 6 -4 7 6 3 10 -3 20 -1 23 4 4 6 9 10 12 10 4 0 3 -3 0 -7z m-58 -17 c-2 -2 -15 -9 -29 -15 -24 -11 -24 -11 -6 3 16 13 49 24 35 12z m35 -46 c-6 -5 -24 21 -24 34 0 6 6 1 14 -10 8 -10 12 -21 10 -24z m-29 11 c3 -5 2 -12 -3 -15 -5 -3 -9 1 -9 9 0 17 3 19 12 6z m95 -29 c-5 -2 -10 -8 -10 -13 0 -6 5 -7 10 -4 6 3 13 -1 16 -10 6 -14 9 -14 16 -3 8 11 9 10 6 -1 -2 -8 -11 -15 -20 -17 -10 -1 -15 3 -11 12 3 9 -2 12 -16 9 -18 -3 -20 -1 -10 17 10 18 8 19 -12 13 -19 -6 -20 -5 -8 7 10 12 18 13 31 4 10 -6 14 -12 8 -14z m-4810 14 c0 -3 -4 -8 -10 -11 -5 -3 -10 -1 -10 4 0 6 5 11 10 11 6 0 10 -2 10 -4z m4747 -22 c-3 -3 -12 -4 -19 -1 -8 3 -5 6 6 6 11 1 17 -2 13 -5z m-3 -22 c2 -4 -4 -8 -14 -8 -10 0 -16 4 -14 8 3 4 9 8 14 8 5 0 11 -4 14 -8z m34 -27 c-3 -3 -9 2 -12 12 -6 14 -5 15 5 6 7 -7 10 -15 7 -18z m32 -40 c0 -2 -6 -5 -13 -8 -8 -3 -14 1 -14 8 0 7 6 11 14 8 7 -3 13 -6 13 -8z m5 -43 c-3 -3 -11 0 -18 7 -9 10 -8 11 6 5 10 -3 15 -9 12 -12z m101 -19 c14 -22 14 -25 2 -15 -10 8 -19 9 -22 3 -3 -5 0 -12 6 -14 9 -4 10 -6 1 -6 -16 -1 -26 16 -13 24 5 3 10 12 10 18 -1 7 -10 1 -20 -12 -11 -13 -20 -19 -20 -13 0 10 27 42 35 42 1 0 11 -12 21 -27z m-136 -13 c0 -5 -2 -10 -4 -10 -3 0 -8 5 -11 10 -3 6 -1 10 4 10 6 0 11 -4 11 -10z m-5071 -27 c-13 -20 -79 -78 -79 -69 0 3 10 14 22 26 12 11 18 20 14 20 -5 0 -3 7 4 15 7 8 16 13 20 10 5 -3 11 -1 15 5 3 5 8 10 11 10 2 0 -1 -8 -7 -17z m5191 -49 c0 -8 -19 -13 -24 -6 -3 5 1 9 9 9 8 0 15 -2 15 -3z m10 -18 c0 -2 -8 -10 -17 -17 -16 -13 -17 -12 -4 4 13 16 21 21 21 13z m40 -28 c0 -4 -4 -8 -9 -8 -6 0 -12 4 -15 8 -3 5 1 9 9 9 8 0 15 -4 15 -9z m-5310 -14 c0 -8 -19 -13 -24 -6 -3 5 1 9 9 9 8 0 15 -2 15 -3z m180 2 c0 -2 -9 -6 -20 -9 -11 -3 -18 -1 -14 4 5 9 34 13 34 5z m-5 -26 c3 -5 1 -10 -4 -10 -6 0 -11 5 -11 10 0 6 2 10 4 10 3 0 8 -4 11 -10z m-31 -19 c4 -5 -4 -7 -16 -3 -20 5 -21 3 -11 -10 10 -12 10 -15 -1 -15 -11 0 -14 12 -7 35 2 6 31 1 35 -7z m5116 5 c0 -3 -4 -8 -10 -11 -5 -3 -10 -1 -10 4 0 6 5 11 10 11 6 0 10 -2 10 -4z m80 -5 c0 -5 -8 -15 -17 -22 -16 -12 -17 -12 -6 2 7 9 10 19 6 22 -3 4 -1 7 5 7 7 0 12 -4 12 -9z m-5203 -47 c-3 -3 -12 -4 -19 -1 -8 3 -5 6 6 6 11 1 17 -2 13 -5z m5243 -8 c0 -3 -4 -8 -10 -11 -5 -3 -10 -1 -10 4 0 6 5 11 10 11 6 0 10 -2 10 -4z m-5290 -10 c0 -2 -7 -7 -16 -10 -8 -3 -12 -2 -9 4 6 10 25 14 25 6z m5144 -18 c-3 -4 -11 -5 -19 -1 -21 7 -19 12 4 10 11 0 18 -5 15 -9z m-5199 -49 c-4 -5 -12 -9 -18 -8 -9 0 -8 2 1 6 6 2 9 10 6 15 -4 7 -2 8 5 4 6 -4 9 -12 6 -17z m5345 12 c0 -6 -4 -12 -8 -15 -5 -3 -9 1 -9 9 0 8 4 15 9 15 4 0 8 -4 8 -9z m-5285 -41 c3 -5 1 -10 -4 -10 -6 0 -11 5 -11 10 0 6 2 10 4 10 3 0 8 -4 11 -10z m5279 2 c3 -5 -1 -9 -9 -9 -8 0 -12 4 -9 9 3 4 7 8 9 8 2 0 6 -4 9 -8z m-5367 -24 c-3 -8 -6 -5 -6 6 -1 11 2 17 5 13 3 -3 4 -12 1 -19z m5406 -21 c-3 -5 1 -14 8 -19 11 -8 11 -9 -2 -5 -9 3 -21 1 -26 -4 -6 -6 -10 -4 -10 5 0 8 5 12 10 9 6 -4 8 0 5 9 -4 8 0 15 8 15 7 0 10 -5 7 -10z m-5375 -22 c-3 -3 -9 2 -12 12 -6 14 -5 15 5 6 7 -7 10 -15 7 -18z m-52 -4 c0 -13 -6 -17 -20 -13 -14 4 -17 2 -11 -8 6 -9 4 -11 -5 -5 -11 7 4 25 35 45 1 0 1 -8 1 -19z m5254 13 c0 -8 -19 -13 -24 -6 -3 5 1 9 9 9 8 0 15 -2 15 -3z m117 -39 c0 -8 -4 -15 -9 -15 -10 0 -11 14 -1 23 9 10 10 9 10 -8z m-5443 -16 c5 -4 -2 -6 -17 -6 -19 2 -23 5 -15 15 6 7 14 9 17 5 3 -4 10 -11 15 -14z m186 11 c0 -5 -5 -10 -11 -10 -5 0 -7 5 -4 10 3 6 8 10 11 10 2 0 4 -4 4 -10z m5330 -31 c-6 -10 -15 -19 -21 -19 -6 0 -3 7 5 16 9 8 13 20 10 26 -4 7 -2 8 4 4 9 -5 9 -13 2 -27z m-130 16 c0 -7 -30 -13 -34 -7 -3 4 4 9 15 9 10 1 19 0 19 -2z m-5370 -19 c0 -3 -4 -8 -10 -11 -5 -3 -10 -1 -10 4 0 6 5 11 10 11 6 0 10 -2 10 -4z m44 -12 c3 -8 2 -12 -4 -9 -6 3 -10 10 -10 16 0 14 7 11 14 -7z m-13 -31 c13 -16 12 -17 -3 -4 -10 7 -18 15 -18 17 0 8 8 3 21 -13z m5432 2 c-3 -9 -8 -14 -10 -11 -3 3 -2 9 2 15 9 16 15 13 8 -4z m-5506 -17 c-3 -8 -6 -5 -6 6 -1 11 2 17 5 13 3 -3 4 -12 1 -19z m123 -4 c0 -8 -19 -13 -24 -6 -3 5 1 9 9 9 8 0 15 -2 15 -3z m5327 -9 c0 -8 -4 -12 -9 -9 -5 3 -6 10 -3 15 9 13 12 11 12 -6z m-5363 -13 c3 -5 -1 -9 -9 -9 -8 0 -12 4 -9 9 3 4 7 8 9 8 2 0 6 -4 9 -8z m5405 5 c-2 -1 -13 -9 -24 -17 -19 -14 -19 -14 -6 3 7 9 18 17 24 17 6 0 8 -1 6 -3z m-104 -26 c3 -5 2 -12 -3 -15 -5 -3 -9 1 -9 9 0 17 3 19 12 6z m-5407 -22 c-12 -8 -4 -13 15 -10 5 1 6 -3 2 -9 -5 -8 -11 -7 -21 1 -8 6 -14 8 -14 5 0 -4 -5 -4 -10 -1 -16 10 8 35 27 28 12 -5 12 -7 1 -14z m5477 1 c-3 -5 -12 -10 -18 -10 -7 0 -6 4 3 10 19 12 23 12 15 0z m91 -22 c4 -6 3 -8 -3 -5 -6 4 -14 0 -17 -9 -4 -9 -9 -14 -13 -11 -3 4 0 13 7 22 15 18 17 18 26 3z m-96 -12 c0 -2 -7 -7 -16 -10 -8 -3 -12 -2 -9 4 6 10 25 14 25 6z m-5420 -20 c0 -3 -4 -8 -10 -11 -5 -3 -10 -1 -10 4 0 6 5 11 10 11 6 0 10 -2 10 -4z m5355 -5 c3 -5 2 -12 -3 -15 -5 -3 -9 1 -9 9 0 17 3 19 12 6z m161 -20 c-4 -6 -13 -11 -19 -10 -9 0 -9 2 1 6 6 2 12 9 12 14 0 6 -5 7 -12 3 -7 -5 -8 -3 -3 5 5 9 11 9 17 3 6 -6 7 -15 4 -21z m-5565 -34 c-10 -9 -11 -8 -5 6 3 10 9 15 12 12 3 -3 0 -11 -7 -18z m5465 -2 c1 -8 -2 -15 -6 -15 -5 0 -8 9 -7 20 1 21 10 18 13 -5z m78 -4 c-9 -9 -34 -9 -34 -1 0 5 9 8 20 7 10 -1 17 -3 14 -6z m-5539 -41 c3 -5 1 -10 -4 -10 -6 0 -11 5 -11 10 0 6 2 10 4 10 3 0 8 -4 11 -10z m5541 -7 c-2 -9 -9 -19 -17 -21 -11 -3 -11 -1 1 7 8 6 11 11 7 11 -5 0 -5 5 -2 10 9 15 14 12 11 -7z m-36 -16 c0 -2 -8 -11 -18 -20 -15 -14 -19 -15 -19 -2 0 8 4 12 8 9 4 -2 10 0 14 6 6 10 15 14 15 7z m-5564 -63 c-5 -12 -2 -15 9 -10 9 3 13 2 10 -4 -6 -10 -35 -14 -35 -6 0 10 13 36 17 36 3 0 2 -7 -1 -16z m5534 10 c0 -8 -19 -13 -24 -6 -3 5 1 9 9 9 8 0 15 -2 15 -3z m50 -19 c0 -2 -7 -1 -17 2 -10 4 -14 2 -10 -4 3 -5 0 -10 -8 -10 -10 0 -12 4 -5 12 5 7 6 15 2 20 -4 4 3 2 16 -4 12 -6 22 -14 22 -16z m17 -15 c-1 -11 -5 -20 -9 -20 -10 0 -10 4 -2 24 8 22 13 20 11 -4z m-117 -24 c0 -3 -4 -8 -10 -11 -5 -3 -10 -1 -10 4 0 6 5 11 10 11 6 0 10 -2 10 -4z m73 -9 c-4 -6 0 -8 9 -4 12 4 14 1 10 -15 -3 -14 -1 -19 6 -14 7 4 12 5 12 2 0 -18 -20 -11 -37 13 -15 20 -17 28 -8 28 8 0 11 -5 8 -10z m-18 -27 c3 -6 -1 -7 -9 -4 -18 7 -21 14 -7 14 6 0 13 -4 16 -10z m25 -26 c0 -8 -19 -13 -24 -6 -3 5 1 9 9 9 8 0 15 -2 15 -3z m50 2 c0 -2 -7 -7 -16 -10 -8 -3 -12 -2 -9 4 6 10 25 14 25 6z m-110 -26 c0 -5 -2 -10 -4 -10 -3 0 -8 5 -11 10 -3 6 -1 10 4 10 6 0 11 -4 11 -10z m0 -40 c0 -5 -5 -10 -11 -10 -5 0 -7 5 -4 10 3 6 8 10 11 10 2 0 4 -4 4 -10z m94 1 c4 -5 22 -8 41 -7 45 4 53 -8 20 -30 -24 -16 -26 -15 -54 15 -16 17 -25 31 -21 31 5 0 11 -4 14 -9z m-14 -15 c0 -3 -4 -8 -10 -11 -5 -3 -10 -1 -10 4 0 6 5 11 10 11 6 0 10 -2 10 -4z m-60 -31 c0 -2 -9 -3 -19 -2 -11 0 -18 5 -15 9 4 6 34 0 34 -7z m83 0 c4 -8 1 -17 -5 -21 -7 -4 -8 -3 -4 4 4 7 2 12 -3 12 -6 0 -11 5 -11 10 0 15 17 12 23 -5z m-31 -37 c-6 -6 -12 -6 -17 3 -6 8 -4 10 5 4 9 -5 10 -1 6 16 -6 21 -6 22 5 6 7 -13 8 -22 1 -29z m-34 12 c-7 -10 -14 -17 -17 -15 -4 4 18 35 25 35 2 0 -1 -9 -8 -20z m32 -35 c0 -2 -6 -5 -13 -8 -8 -3 -14 1 -14 8 0 7 6 11 14 8 7 -3 13 -6 13 -8z m-70 -29 c0 -2 -7 -7 -16 -10 -8 -3 -12 -2 -9 4 6 10 25 14 25 6z m62 -15 c-4 -10 -7 -11 -10 -3 -3 10 -7 10 -20 0 -15 -11 -15 -11 -5 3 16 20 43 21 35 0z m18 -26 c0 -7 -30 -13 -34 -7 -3 4 4 9 15 9 10 1 19 0 19 -2z m-24 -54 c2 -7 0 -7 -3 -1 -3 7 -9 8 -17 1 -9 -8 -13 -7 -13 3 0 17 30 14 33 -3z m124 -32 c0 -5 -9 -4 -19 3 -11 7 -17 16 -14 20 5 10 33 -10 33 -23z m-130 5 c0 -8 -19 -13 -24 -6 -3 5 1 9 9 9 8 0 15 -2 15 -3z m14 -29 c-4 -9 -14 -20 -23 -24 -13 -7 -17 -5 -17 9 0 13 4 16 12 9 8 -6 14 -5 18 6 3 8 8 15 10 15 3 0 3 -7 0 -15z m66 -35 c6 0 13 7 16 15 5 11 10 13 19 5 6 -5 15 -7 19 -3 4 4 4 -1 0 -11 -5 -12 -9 -14 -14 -6 -5 8 -9 7 -13 -4 -4 -9 -13 -13 -22 -10 -16 6 -21 -7 -7 -20 4 -4 7 -11 7 -14 0 -14 32 -52 38 -45 4 3 7 2 7 -4 0 -6 -7 -14 -16 -17 -15 -6 -15 -8 1 -26 17 -19 17 -21 2 -38 -15 -17 -15 -20 0 -43 9 -13 13 -21 9 -17 -4 3 -16 -1 -26 -10 -14 -12 -16 -19 -9 -29 6 -7 16 -10 21 -7 7 4 7 0 0 -12 -5 -11 -8 -27 -7 -37 2 -9 -1 -15 -5 -12 -5 3 -7 15 -5 27 3 11 -4 32 -15 46 -11 13 -20 19 -20 13 0 -26 -36 8 -37 36 0 15 1 20 4 11 2 -10 8 -18 13 -18 10 0 8 20 -4 38 -5 8 -4 18 3 25 20 20 12 31 -9 12 -12 -11 -20 -13 -20 -6 0 7 -5 9 -11 5 -7 -4 -6 3 2 17 7 13 12 30 11 37 -2 6 2 12 8 12 6 0 8 -4 5 -10 -3 -5 0 -10 7 -10 10 0 10 -2 -1 -9 -7 -5 -9 -11 -4 -14 5 -3 15 -2 23 4 8 5 11 9 6 9 -5 0 -2 8 5 17 12 15 12 16 -4 10 -10 -4 -16 -3 -13 2 3 5 -1 11 -9 15 -8 3 -15 11 -14 18 0 10 2 10 6 1 2 -7 12 -13 20 -13 13 0 13 3 3 16 -23 27 -50 37 -66 23 -12 -10 -13 -9 -8 5 8 20 23 20 50 1 21 -14 34 -11 34 7 0 5 -4 7 -9 4 -4 -3 -17 1 -27 9 -10 8 -14 15 -8 15 5 0 15 -5 22 -12 9 -9 12 -9 12 -1 0 7 -4 15 -10 18 -5 3 -10 10 -10 16 0 5 9 0 20 -11 11 -11 25 -20 30 -20z m-130 4 c0 -8 -19 -13 -24 -6 -3 5 1 9 9 9 8 0 15 -2 15 -3z m57 -76 c-3 -7 -5 -2 -5 12 0 14 2 19 5 13 2 -7 2 -19 0 -25z m-26 -1 c-10 -9 -11 -8 -5 6 3 10 9 15 12 12 3 -3 0 -11 -7 -18z m-5511 -1 c0 -11 -19 -15 -25 -6 -3 5 1 10 9 10 9 0 16 -2 16 -4z m5525 -26 c3 -5 1 -10 -4 -10 -6 0 -11 5 -11 10 0 6 2 10 4 10 3 0 8 -4 11 -10z m-1 -77 c31 -5 32 -13 2 -11 -15 1 -33 9 -39 17 -10 12 -9 13 3 6 8 -5 24 -11 34 -12z m-11 -38 c-3 -9 -8 -14 -10 -11 -3 3 -2 9 2 15 9 16 15 13 8 -4z m27 -39 c0 -3 -4 -8 -10 -11 -5 -3 -10 -1 -10 4 0 6 5 11 10 11 6 0 10 -2 10 -4z m-4 -82 c1 -9 0 -13 -4 -10 -3 4 -7 14 -8 22 -1 9 0 13 4 10 3 -4 7 -14 8 -22z m17 -90 c4 9 11 16 17 16 5 0 2 -9 -7 -20 -13 -14 -20 -17 -30 -8 -7 6 -13 15 -13 21 0 6 6 3 13 -7 12 -17 14 -17 20 -2z m-6 -60 c-3 -3 -12 -4 -19 -1 -8 3 -5 6 6 6 11 1 17 -2 13 -5z m24 -41 c-12 -20 -14 -14 -5 12 4 9 9 14 11 11 3 -2 0 -13 -6 -23z m-9 -115 c-8 -8 -9 -4 -5 13 4 13 8 18 11 10 2 -7 -1 -18 -6 -23z m-22 -22 c0 -6 -5 -3 -11 7 -6 9 -15 14 -21 11 -7 -4 -8 -2 -4 5 9 14 36 -3 36 -23z m-16 -14 c3 -5 -1 -9 -9 -9 -8 0 -12 4 -9 9 3 4 7 8 9 8 2 0 6 -4 9 -8z m89 -32 c12 0 16 -7 13 -22 -1 -13 -5 -21 -8 -18 -3 3 -12 -1 -21 -9 -26 -21 -20 -2 6 21 12 10 16 18 8 16 -8 -3 -23 4 -33 14 -24 24 -23 36 0 15 10 -10 26 -17 35 -17z m-33 -20 c0 -5 -5 -10 -11 -10 -5 0 -7 5 -4 10 3 6 8 10 11 10 2 0 4 -4 4 -10z m-5367 -25 c-7 -21 -12 -19 -10 4 0 11 5 18 9 15 4 -3 5 -11 1 -19z m5318 8 c13 -16 12 -17 -3 -4 -10 7 -18 15 -18 17 0 8 8 3 21 -13z m49 -58 c0 -5 -5 -3 -10 5 -5 8 -10 20 -10 25 0 6 5 3 10 -5 5 -8 10 -19 10 -25z m25 25 c-3 -5 -2 -10 3 -10 5 0 9 -7 9 -15 0 -8 -4 -12 -9 -9 -4 3 -8 0 -8 -5 0 -6 5 -11 11 -11 5 0 7 -5 3 -11 -10 -17 -22 10 -19 41 4 31 4 30 11 30 3 0 2 -4 -1 -10z m-5334 -87 c13 -16 12 -17 -3 -4 -10 7 -18 15 -18 17 0 8 8 3 21 -13z m5259 11 c0 -8 -19 -13 -24 -6 -3 5 1 9 9 9 8 0 15 -2 15 -3z m40 -9 c0 -2 -6 -5 -13 -8 -8 -3 -14 1 -14 8 0 7 6 11 14 8 7 -3 13 -6 13 -8z m15 -33 c-3 -3 -11 0 -18 7 -9 10 -8 11 6 5 10 -3 15 -9 12 -12z m-30 -2 c4 -6 3 -10 -2 -9 -20 3 -27 -2 -13 -11 12 -7 10 -9 -7 -7 -21 1 -21 2 -6 19 19 21 20 21 28 8z m2 -65 c4 -4 3 -5 -4 -2 -6 4 -13 2 -15 -5 -3 -8 -6 -6 -10 4 -7 17 15 19 29 3z m18 -25 c3 -6 -1 -7 -9 -4 -18 7 -21 14 -7 14 6 0 13 -4 16 -10z m-35 -10 c0 -5 -2 -10 -4 -10 -3 0 -8 5 -11 10 -3 6 -1 10 4 10 6 0 11 -4 11 -10z m50 -14 c0 -3 -4 -8 -10 -11 -5 -3 -10 -1 -10 4 0 6 5 11 10 11 6 0 10 -2 10 -4z m-37 -27 c-8 -8 -13 -7 -18 2 -5 8 -4 10 3 5 7 -4 12 -2 12 5 0 7 3 9 7 6 4 -4 2 -12 -4 -18z m-56 -26 c0 -9 -4 -10 -14 -2 -7 6 -13 12 -13 14 0 1 6 2 13 2 8 0 14 -6 14 -14z m76 11 c-7 -3 -9 -13 -6 -22 4 -14 3 -14 -5 -2 -12 16 -7 30 11 29 9 0 9 -2 0 -5z m-38 -24 c-3 -5 -2 -10 4 -10 6 0 7 -8 4 -17 -6 -15 -7 -14 -13 3 -7 18 -4 34 6 34 3 0 2 -4 -1 -10z m-61 -38 c3 -5 -1 -9 -9 -9 -8 0 -12 4 -9 9 3 4 7 8 9 8 2 0 6 -4 9 -8z m66 -38 c0 -8 -19 -13 -24 -6 -3 5 1 9 9 9 8 0 15 -2 15 -3z m-44 -39 c0 -28 -8 -24 -13 5 -2 11 1 20 5 20 4 0 8 -11 8 -25z m51 10 c0 -8 -4 -12 -9 -9 -5 3 -6 10 -3 15 9 13 12 11 12 -6z m-67 -59 c0 -2 -8 -10 -17 -17 -16 -13 -17 -12 -4 4 13 16 21 21 21 13z m20 -16 c0 -5 -5 -10 -11 -10 -5 0 -7 5 -4 10 3 6 8 10 11 10 2 0 4 -4 4 -10z m-160 -394 c0 -2 -8 -10 -17 -17 -16 -13 -17 -12 -4 4 13 16 21 21 21 13z m-230 -270 c0 -2 -8 -10 -17 -17 -16 -13 -17 -12 -4 4 13 16 21 21 21 13z m-89 -89 c-10 -9 -11 -8 -5 6 3 10 9 15 12 12 3 -3 0 -11 -7 -18z m-192 -51 c9 -11 9 -16 -1 -22 -7 -4 -10 -4 -6 1 4 4 3 14 -3 22 -6 7 -9 13 -6 13 2 0 10 -6 16 -14z m-91 -61 c-3 -3 -9 2 -12 12 -6 14 -5 15 5 6 7 -7 10 -15 7 -18z m128 2 c5 4 -1 -4 -14 -17 -19 -21 -24 -23 -32 -10 -5 8 -10 20 -10 25 1 6 5 2 11 -8 6 -9 15 -15 20 -11 6 3 5 12 -3 22 -11 15 -11 15 3 5 9 -7 20 -10 25 -6z m-213 -12 c-3 -9 -8 -14 -10 -11 -3 3 -2 9 2 15 9 16 15 13 8 -4z m151 -27 c-3 -4 -9 -8 -15 -8 -5 0 -9 4 -9 8 0 5 7 9 15 9 8 0 12 -4 9 -9z m-144 -34 c0 -8 -19 -13 -24 -6 -3 5 1 9 9 9 8 0 15 -2 15 -3z m54 -10 c3 -8 2 -12 -4 -9 -6 3 -10 1 -10 -6 0 -7 -2 -10 -5 -7 -5 5 4 38 10 38 2 0 6 -7 9 -16z m-240 -20 c3 -8 2 -12 -4 -9 -6 3 -10 10 -10 16 0 14 7 11 14 -7z m206 8 c0 -5 -10 -14 -23 -19 -18 -9 -24 -8 -24 2 0 7 6 11 14 8 7 -3 13 0 13 6 0 6 5 11 10 11 6 0 10 -4 10 -8z m-262 -47 c-3 -3 -9 2 -12 12 -6 14 -5 15 5 6 7 -7 10 -15 7 -18z m-38 11 c0 -2 -7 -7 -16 -10 -8 -3 -12 -2 -9 4 6 10 25 14 25 6z m105 -6 c-3 -5 -12 -10 -18 -10 -7 0 -6 4 3 10 19 12 23 12 15 0z m-264 -17 c13 -16 12 -17 -3 -4 -17 13 -22 21 -14 21 2 0 10 -8 17 -17z m79 13 c0 -2 -8 -10 -17 -17 -16 -13 -17 -12 -4 4 13 16 21 21 21 13z m-43 -42 c-3 -4 -1 -16 5 -28 11 -21 11 -21 -9 -1 -14 14 -17 22 -9 27 14 9 22 10 13 2z m-320 -19 c0 -8 -4 -12 -9 -9 -5 3 -6 10 -3 15 9 13 12 11 12 -6z m87 7 c3 -5 -1 -9 -9 -9 -8 0 -15 4 -15 9 0 4 4 8 9 8 6 0 12 -4 15 -8z m116 -4 c0 -11 -12 -10 -30 2 -12 7 -10 9 8 7 12 0 22 -5 22 -9z m-465 -7 c3 -5 2 -12 -3 -15 -5 -3 -9 1 -9 9 0 17 3 19 12 6z m380 0 c3 -5 2 -12 -3 -15 -5 -3 -9 1 -9 9 0 17 3 19 12 6z m-185 -5 c0 -2 -8 -10 -17 -17 -16 -13 -17 -12 -4 4 13 16 21 21 21 13z m-53 -21 c0 -8 -4 -15 -9 -15 -10 0 -11 14 -1 23 9 10 10 9 10 -8z m-343 -23 c3 -5 -1 -9 -9 -9 -8 0 -12 4 -9 9 3 4 7 8 9 8 2 0 6 -4 9 -8z m106 -13 c0 -5 -4 -9 -8 -9 -5 0 -9 7 -9 15 0 8 4 12 9 9 4 -3 8 -9 8 -15z m45 11 c3 -5 1 -10 -4 -10 -6 0 -11 5 -11 10 0 6 2 10 4 10 3 0 8 -4 11 -10z m-168 -26 c-3 -3 -12 -4 -19 -1 -8 3 -5 6 6 6 11 1 17 -2 13 -5z m98 -4 c3 -6 -1 -7 -9 -4 -18 7 -21 14 -7 14 6 0 13 -4 16 -10z m-208 -17 c2 -6 -1 -14 -6 -18 -7 -4 -8 0 -4 11 4 11 3 15 -5 10 -6 -3 -13 -2 -16 3 -4 5 2 8 11 7 9 -2 19 -8 20 -13z m113 3 c0 -2 -7 -7 -16 -10 -8 -3 -12 -2 -9 4 6 10 25 14 25 6z m-300 -10 c0 -2 -7 -7 -16 -10 -8 -3 -12 -2 -9 4 6 10 25 14 25 6z m119 -6 c-11 -7 -86 -6 -94 1 -2 3 20 5 50 5 30 0 50 -3 44 -6z"/>
<path d="M1275 5020 c-3 -5 -1 -10 4 -10 6 0 11 5 11 10 0 6 -2 10 -4 10 -3 0 -8 -4 -11 -10z"/>
<path d="M1326 4995 c-11 -8 -17 -17 -14 -20 2 -3 13 4 23 15 21 23 18 25 -9 5z"/>
<path d="M1280 4970 c-9 -6 -10 -10 -3 -10 6 0 15 5 18 10 8 12 4 12 -15 0z"/>
<path d="M1195 4939 c-10 -15 3 -25 16 -12 7 7 7 13 1 17 -6 3 -14 1 -17 -5z"/>
<path d="M1076 4861 c-4 -5 -2 -12 3 -15 5 -4 12 -2 15 3 4 5 2 12 -3 15 -5 4 -12 2 -15 -3z"/>
<path d="M1025 4850 c-3 -6 1 -7 9 -4 18 7 21 14 7 14 -6 0 -13 -4 -16 -10z"/>
<path d="M960 4771 c-8 -6 -18 -7 -24 -4 -5 3 -6 1 -2 -5 5 -9 13 -9 27 -2 10 6 19 13 19 15 0 7 -3 6 -20 -4z"/>
<path d="M5030 4756 c0 -2 8 -10 18 -17 15 -13 16 -12 3 4 -13 16 -21 21 -21 13z"/>
<path d="M5134 4654 c2 -11 7 -19 12 -19 5 0 15 -4 22 -9 10 -6 10 -11 1 -22 -8 -10 -8 -14 0 -14 6 0 11 6 11 13 0 8 3 7 10 -3 5 -8 11 -12 14 -9 3 3 -12 22 -33 44 -30 28 -39 33 -37 19z"/>
<path d="M5210 4560 c-8 -5 -12 -12 -9 -15 4 -3 12 1 19 10 14 17 11 19 -10 5z"/>
<path d="M5255 4521 c-6 -10 11 -24 33 -27 10 -2 8 3 -4 17 -20 22 -21 22 -29 10z"/>
<path d="M5287 4463 c-4 -3 -7 -11 -7 -17 0 -6 5 -5 12 2 6 6 9 14 7 17 -3 3 -9 2 -12 -2z"/>
<path d="M795 4680 c-3 -5 -1 -10 4 -10 6 0 11 5 11 10 0 6 -2 10 -4 10 -3 0 -8 -4 -11 -10z"/>
<path d="M730 4616 c0 -2 7 -7 16 -10 8 -3 12 -2 9 4 -6 10 -25 14 -25 6z"/>
<path d="M639 4493 c-13 -16 -12 -17 4 -4 9 7 17 15 17 17 0 8 -8 3 -21 -13z"/>
<path d="M424 4318 c-3 -4 -2 -8 2 -8 4 0 -1 -7 -12 -15 -10 -8 -15 -15 -10 -15 6 0 2 -6 -8 -13 -16 -12 -16 -13 3 -13 11 0 18 2 16 5 -3 2 4 11 15 18 11 8 18 18 15 23 -3 5 3 13 12 19 16 9 15 10 -5 8 -13 -1 -26 -5 -28 -9z m11 -28 c-3 -5 -12 -10 -18 -10 -7 0 -6 4 3 10 19 12 23 12 15 0z"/>
<path d="M5710 3075 c0 -8 5 -15 10 -15 6 0 10 7 10 15 0 8 -4 15 -10 15 -5 0 -10 -7 -10 -15z"/>
<path d="M5696 2743 c-3 -3 -1 -12 5 -20 6 -7 8 -13 4 -13 -4 0 -2 -6 4 -14 8 -9 8 -16 2 -20 -5 -4 -8 -20 -6 -36 3 -19 0 -29 -8 -27 -7 1 -12 -5 -12 -13 0 -8 8 -14 17 -14 10 1 15 -3 11 -9 -4 -6 -1 -7 7 -2 8 5 11 4 6 -3 -4 -6 -14 -8 -23 -5 -10 4 -14 2 -9 -5 3 -6 -2 -15 -11 -21 -15 -8 -12 -10 15 -9 17 1 38 8 45 16 10 13 9 14 -1 8 -16 -10 -11 26 7 48 11 13 11 17 -2 22 -16 6 -17 20 -3 43 7 10 6 12 -4 6 -10 -6 -12 -4 -7 8 3 8 -1 21 -8 27 -8 7 -13 16 -10 20 7 11 -10 22 -19 13z m33 -100 c-4 -22 2 -33 14 -27 9 6 9 4 -1 -8 -13 -16 -35 -18 -49 -4 -4 4 -1 6 7 4 10 -2 14 4 13 20 -2 12 2 22 7 22 6 0 9 -3 9 -7z"/>
<path d="M5650 2640 c0 -5 5 -10 11 -10 5 0 7 5 4 10 -3 6 -8 10 -11 10 -2 0 -4 -4 -4 -10z"/>
<path d="M2476 5812 c-3 -5 1 -9 9 -9 8 0 12 4 9 9 -3 4 -7 8 -9 8 -2 0 -6 -4 -9 -8z"/>
<path d="M3555 5710 c-3 -5 -1 -10 4 -10 6 0 11 5 11 10 0 6 -2 10 -4 10 -3 0 -8 -4 -11 -10z"/>
<path d="M2036 5701 c3 -3 18 -6 34 -6 16 0 27 2 24 5 -3 3 -19 5 -35 6 -16 0 -26 -2 -23 -5z"/>
<path d="M1823 5563 c-3 -7 -10 -10 -16 -6 -6 4 -7 1 -2 -7 6 -10 11 -10 20 3 7 9 14 14 17 11 4 -3 8 -1 12 4 3 5 -2 9 -10 9 -9 0 -18 -6 -21 -14z"/>
<path d="M3935 5550 c3 -5 8 -10 11 -10 2 0 4 5 4 10 0 6 -5 10 -11 10 -5 0 -7 -4 -4 -10z"/>
<path d="M4150 5450 c0 -5 5 -10 11 -10 5 0 7 5 4 10 -3 6 -8 10 -11 10 -2 0 -4 -4 -4 -10z"/>
<path d="M1586 5402 c-3 -4 4 -9 15 -9 23 -2 25 3 4 10 -8 4 -16 3 -19 -1z"/>
<path d="M1545 5380 c-3 -6 1 -7 9 -4 18 7 21 14 7 14 -6 0 -13 -4 -16 -10z"/>
<path d="M1515 5369 c-4 -6 -5 -12 -2 -15 2 -3 7 2 10 11 7 17 1 20 -8 4z"/>
<path d="M1566 5359 c-15 -18 -20 -19 -27 -8 -5 8 -9 9 -9 3 0 -6 8 -18 17 -25 9 -8 14 -9 10 -2 -4 7 0 14 11 17 10 4 19 13 19 21 0 19 1 19 -21 -6z"/>
<path d="M1502 5320 c0 -14 2 -19 5 -12 2 6 2 18 0 25 -3 6 -5 1 -5 -13z"/>
<path d="M1575 5331 c-10 -17 12 -21 25 -6 10 12 10 15 -3 15 -9 0 -18 -4 -22 -9z"/>
<path d="M1460 5325 c0 -2 6 -8 13 -14 10 -8 14 -7 14 2 0 8 -6 14 -14 14 -7 0 -13 -1 -13 -2z"/>
<path d="M1526 5315 c4 -8 11 -15 16 -15 6 0 5 6 -2 15 -7 8 -14 15 -16 15 -2 0 -1 -7 2 -15z"/>
<path d="M1355 5299 c-4 -6 -4 -13 -1 -16 3 -4 6 -1 6 6 0 7 5 9 12 5 7 -4 8 -3 4 4 -9 15 -13 15 -21 1z"/>
<path d="M1390 5280 c0 -5 5 -10 10 -10 6 0 10 5 10 10 0 6 -4 10 -10 10 -5 0 -10 -4 -10 -10z"/>
<path d="M1502 5274 c15 -8 33 -24 39 -36 9 -16 13 -18 20 -7 4 8 3 19 -3 26 -8 9 -7 13 2 13 34 0 -7 15 -43 16 l-42 2 27 -14z m43 -2 c-3 -3 0 -11 6 -19 17 -20 5 -16 -14 5 -15 16 -15 19 -2 19 8 0 13 -3 10 -5z"/>
<path d="M1420 5265 c-9 -10 -9 -15 -1 -15 6 0 11 6 11 13 0 8 4 7 10 -3 6 -9 10 -10 10 -3 0 19 -17 24 -30 8z"/>
<path d="M1215 5260 c3 -5 8 -10 11 -10 2 0 4 5 4 10 0 6 -5 10 -11 10 -5 0 -7 -4 -4 -10z"/>
<path d="M1358 5263 c7 -3 16 -2 19 1 4 3 -2 6 -13 5 -11 0 -14 -3 -6 -6z"/>
<path d="M1255 5251 c-3 -5 -2 -12 3 -15 5 -3 9 1 9 9 0 17 -3 19 -12 6z"/>
<path d="M1294 5241 c0 -12 5 -17 15 -13 10 4 12 1 6 -8 -6 -9 -4 -11 4 -6 9 6 8 13 -5 27 -21 23 -20 23 -20 0z"/>
<path d="M1390 5245 c0 -8 4 -15 10 -15 5 0 7 7 4 15 -4 8 -8 15 -10 15 -2 0 -4 -7 -4 -15z"/>
<path d="M1350 5221 c8 -5 17 -8 21 -5 4 2 9 -5 11 -16 2 -12 7 -20 12 -20 5 1 12 -4 16 -10 5 -9 9 -9 14 -1 6 10 2 12 -21 10 -5 0 -10 10 -13 22 -4 14 -15 23 -30 26 -19 2 -21 1 -10 -6z"/>
<path d="M1153 5205 c0 -8 4 -12 9 -9 5 3 6 10 3 15 -9 13 -12 11 -12 -6z"/>
<path d="M1264 5208 c3 -15 26 -23 26 -8 0 6 -4 9 -9 6 -5 -4 -12 -1 -14 4 -3 6 -4 5 -3 -2z"/>
<path d="M1235 5200 c-8 -13 4 -32 16 -25 5 4 9 -3 9 -14 0 -14 -5 -19 -20 -16 -11 2 -23 -1 -26 -7 -4 -6 -3 -8 3 -5 6 4 13 0 17 -8 3 -8 11 -15 18 -14 10 0 10 2 1 6 -7 2 -13 9 -13 14 0 5 6 8 13 7 7 -2 12 7 12 22 0 16 -5 24 -14 22 -8 -2 -11 3 -8 13 7 17 2 20 -8 5z"/>
<path d="M1175 5190 c-3 -6 1 -7 9 -4 18 7 21 14 7 14 -6 0 -13 -4 -16 -10z"/>
<path d="M1055 5181 c-3 -5 -2 -12 3 -15 5 -3 9 1 9 9 0 17 -3 19 -12 6z"/>
<path d="M1154 5171 c4 -6 3 -17 -3 -24 -7 -9 -5 -13 8 -13 19 0 18 31 -2 43 -6 3 -7 1 -3 -6z"/>
<path d="M1495 5170 c-4 -6 -10 -8 -15 -5 -4 3 -10 -5 -13 -16 -6 -21 -5 -21 19 2 13 12 24 24 24 26 0 7 -9 3 -15 -7z"/>
<path d="M1205 5160 c-3 -6 1 -7 9 -4 18 7 21 14 7 14 -6 0 -13 -4 -16 -10z"/>
<path d="M970 5140 c0 -5 5 -10 11 -10 5 0 7 5 4 10 -3 6 -8 10 -11 10 -2 0 -4 -4 -4 -10z"/>
<path d="M1030 5142 c0 -5 7 -9 15 -9 8 0 12 4 9 9 -3 4 -9 8 -15 8 -5 0 -9 -4 -9 -8z"/>
<path d="M1075 5143 c3 -3 0 -12 -5 -18 -7 -9 -6 -14 3 -18 14 -5 17 28 4 38 -4 3 -5 2 -2 -2z"/>
<path d="M1276 5133 c-6 -14 -5 -15 5 -6 7 7 10 15 7 18 -3 3 -9 -2 -12 -12z"/>
<path d="M1107 5113 c3 -7 8 -13 12 -13 4 0 8 6 8 13 0 8 -6 14 -13 14 -7 0 -10 -6 -7 -14z"/>
<path d="M1033 5105 c0 -8 4 -15 9 -15 4 0 8 4 8 9 0 6 -4 12 -8 15 -5 3 -9 -1 -9 -9z"/>
<path d="M940 5100 c-9 -6 -10 -10 -3 -10 6 0 15 5 18 10 8 12 4 12 -15 0z"/>
<path d="M1159 5102 c21 -7 22 -9 7 -21 -9 -7 -16 -19 -16 -25 0 -6 5 -4 10 6 6 10 19 15 32 12 19 -4 20 -3 5 4 -10 4 -17 12 -15 17 2 6 -8 11 -22 12 l-25 2 24 -7z"/>
<path d="M965 5080 c-2 -4 8 -6 23 -5 15 1 31 -3 35 -9 6 -7 7 -6 5 4 -4 14 -55 23 -63 10z"/>
<path d="M1108 5077 c15 -7 26 -7 33 0 6 6 -1 10 -23 10 -30 0 -30 -1 -10 -10z"/>
<path d="M1078 5067 c12 -7 19 -17 15 -22 -4 -4 -2 -5 6 0 12 7 11 10 -4 22 -11 7 -24 13 -29 13 -6 -1 -1 -6 12 -13z"/>
<path d="M1415 5071 c-3 -5 -2 -12 3 -15 5 -3 9 1 9 9 0 17 -3 19 -12 6z"/>
<path d="M977 5053 c-10 -9 -9 -23 1 -23 5 0 9 7 9 15 0 17 -1 18 -10 8z"/>
<path d="M1032 5031 c7 -9 13 -18 15 -20 1 -2 1 5 0 16 0 11 -7 20 -14 20 -10 0 -10 -4 -1 -16z"/>
<path d="M1115 5039 c-11 -16 -1 -19 13 -3 7 8 8 14 3 14 -5 0 -13 -5 -16 -11z"/>
<path d="M1060 5036 c0 -2 7 -7 16 -10 8 -3 12 -2 9 4 -6 10 -25 14 -25 6z"/>
<path d="M866 5018 c3 -5 10 -6 15 -3 13 9 11 12 -6 12 -8 0 -12 -4 -9 -9z"/>
<path d="M912 4999 c6 -16 12 -28 14 -26 5 5 -13 57 -20 57 -3 0 0 -14 6 -31z"/>
<path d="M954 5012 c3 -5 0 -13 -6 -15 -8 -3 -6 -6 5 -6 19 -1 23 14 5 25 -6 4 -8 3 -4 -4z"/>
<path d="M1106 4996 c10 -8 21 -12 24 -10 5 6 -21 24 -34 24 -6 0 -1 -6 10 -14z"/>
<path d="M980 4985 c-9 -10 -9 -15 -1 -15 6 0 11 5 11 11 0 5 5 7 12 3 7 -4 8 -3 4 4 -9 15 -11 15 -26 -3z"/>
<path d="M894 4976 c1 -8 5 -18 8 -22 4 -3 5 1 4 10 -1 8 -5 18 -8 22 -4 3 -5 -1 -4 -10z"/>
<path d="M1094 4975 c11 -8 24 -15 30 -15 5 0 1 7 -10 15 -10 8 -23 14 -29 14 -5 0 -1 -6 9 -14z"/>
<path d="M811 4967 c-8 -10 -7 -14 2 -14 8 0 14 6 14 14 0 7 -1 13 -2 13 -2 0 -8 -6 -14 -13z"/>
<path d="M867 4956 c20 -26 27 -28 17 -3 -3 8 -12 18 -20 21 -11 4 -10 0 3 -18z"/>
<path d="M948 4963 c6 -2 9 -10 6 -15 -4 -7 -2 -8 5 -4 13 9 5 26 -12 25 -9 0 -8 -2 1 -6z"/>
<path d="M1010 4949 c7 -11 14 -19 16 -16 7 7 -7 37 -17 37 -6 0 -5 -9 1 -21z"/>
<path d="M976 4943 c-6 -14 -5 -15 5 -6 7 7 10 15 7 18 -3 3 -9 -2 -12 -12z"/>
<path d="M795 4930 c-4 -6 -11 -8 -16 -5 -5 4 -9 1 -9 -4 0 -15 11 -13 34 4 11 8 15 15 9 15 -7 0 -15 -5 -18 -10z"/>
<path d="M835 4925 c-25 -12 -26 -14 -5 -9 14 4 29 10 35 15 12 12 5 11 -30 -6z"/>
<path d="M930 4920 c0 -5 5 -10 10 -10 6 0 10 5 10 10 0 6 -4 10 -10 10 -5 0 -10 -4 -10 -10z"/>
<path d="M877 4905 c6 -18 5 -18 -10 -6 -11 9 -17 10 -17 2 0 -6 5 -11 11 -11 8 0 8 -5 -1 -15 -10 -12 -9 -16 4 -21 9 -4 20 -4 23 0 4 3 -1 6 -11 6 -9 0 -15 4 -11 10 3 5 12 7 20 3 19 -7 19 8 0 33 -15 19 -15 19 -8 -1z"/>
<path d="M793 4885 c0 -8 4 -12 9 -9 4 3 8 9 8 15 0 5 -4 9 -8 9 -5 0 -9 -7 -9 -15z"/>
<path d="M823 4881 c-9 -15 -10 -22 -1 -27 6 -4 8 -3 4 4 -3 5 -1 12 5 14 7 2 10 9 8 16 -3 8 -9 5 -16 -7z"/>
<path d="M723 4877 c-3 -5 0 -14 6 -20 9 -9 10 -7 5 7 -5 13 -4 17 4 12 6 -3 13 -3 16 2 3 5 -2 9 -10 9 -8 0 -17 -4 -21 -10z"/>
<path d="M4910 4879 c0 -5 5 -7 10 -4 6 3 10 8 10 11 0 2 -4 4 -10 4 -5 0 -10 -5 -10 -11z"/>
<path d="M774 4862 c3 -6 -2 -13 -11 -15 -16 -4 -16 -5 -1 -6 21 -1 32 15 17 25 -7 4 -9 3 -5 -4z"/>
<path d="M702 4844 c10 -10 20 -16 22 -13 3 3 -5 11 -17 18 -21 13 -21 12 -5 -5z"/>
<path d="M796 4842 c-2 -4 -1 -14 4 -22 7 -11 9 -9 7 8 -1 24 -3 26 -11 14z"/>
<path d="M832 4843 c-10 -4 -7 -9 8 -20 12 -8 24 -12 27 -9 3 3 -2 8 -11 12 -9 3 -13 10 -10 15 6 10 5 10 -14 2z"/>
<path d="M639 4838 c-5 -18 -6 -38 -1 -34 7 8 12 36 6 36 -2 0 -4 -1 -5 -2z"/>
<path d="M697 4819 c7 -7 15 -10 18 -7 3 3 -2 9 -12 12 -14 6 -15 5 -6 -5z"/>
<path d="M4977 4818 c-4 -13 -1 -16 15 -13 11 3 23 7 27 11 3 4 -2 4 -11 1 -9 -3 -18 -1 -21 6 -2 6 -6 4 -10 -5z"/>
<path d="M669 4811 c8 -5 10 -14 6 -22 -6 -11 -5 -11 5 -2 14 12 6 33 -13 33 -8 0 -7 -3 2 -9z"/>
<path d="M705 4787 c-14 -11 -15 -16 -5 -22 9 -5 11 -4 6 3 -4 7 -1 12 8 12 9 0 16 5 16 10 0 13 -3 13 -25 -3z"/>
<path d="M638 4782 c-17 -7 -17 -8 2 -19 14 -9 21 -10 26 -1 5 7 3 8 -6 3 -10 -6 -12 -4 -7 8 3 10 5 17 4 16 -1 0 -10 -4 -19 -7z"/>
<path d="M739 4761 c8 -5 21 -7 29 -3 10 3 13 1 8 -6 -4 -7 -2 -12 4 -12 25 0 1 25 -26 27 -20 1 -24 -1 -15 -6z"/>
<path d="M595 4749 c-4 -6 -5 -12 -2 -15 2 -3 7 2 10 11 7 17 1 20 -8 4z"/>
<path d="M675 4749 c-4 -6 -5 -12 -2 -15 2 -3 7 2 10 11 7 17 1 20 -8 4z"/>
<path d="M632 4719 c6 -16 12 -28 14 -26 5 5 -13 57 -20 57 -3 0 0 -14 6 -31z"/>
<path d="M691 4724 c0 -11 3 -14 6 -6 3 7 2 16 -1 19 -3 4 -6 -2 -5 -13z"/>
<path d="M657 4719 c7 -7 15 -10 18 -7 3 3 -2 9 -12 12 -14 6 -15 5 -6 -5z"/>
<path d="M593 4710 c2 -8 10 -14 16 -12 6 1 11 -7 11 -17 0 -14 -6 -19 -20 -16 -11 2 -23 -1 -26 -7 -4 -7 -2 -8 4 -4 8 5 12 -1 13 -16 l1 -23 6 23 c4 13 12 23 17 23 6 -1 10 8 10 19 0 11 -4 20 -9 19 -5 0 -13 5 -18 13 -8 10 -9 10 -5 -2z"/>
<path d="M710 4711 c0 -5 5 -13 10 -16 6 -3 10 -2 10 4 0 5 -4 13 -10 16 -5 3 -10 2 -10 -4z"/>
<path d="M565 4680 c-3 -6 1 -7 9 -4 18 7 21 14 7 14 -6 0 -13 -4 -16 -10z"/>
<path d="M849 4663 c-13 -16 -12 -17 4 -4 9 7 17 15 17 17 0 8 -8 3 -21 -13z"/>
<path d="M525 4640 c-3 -6 1 -7 9 -4 18 7 21 14 7 14 -6 0 -13 -4 -16 -10z"/>
<path d="M813 4635 c0 -8 4 -12 9 -9 5 3 6 10 3 15 -9 13 -12 11 -12 -6z"/>
<path d="M507 4609 c4 -13 8 -18 11 -10 2 7 -1 18 -6 23 -8 8 -9 4 -5 -13z"/>
<path d="M470 4616 c0 -2 7 -9 15 -16 13 -11 14 -10 9 4 -5 14 -24 23 -24 12z"/>
<path d="M456 4578 c3 -5 10 -6 15 -3 13 9 11 12 -6 12 -8 0 -12 -4 -9 -9z"/>
<path d="M761 4571 c-7 -5 -11 -15 -9 -22 3 -10 8 -7 17 9 13 24 12 26 -8 13z"/>
<path d="M476 4562 c-3 -5 1 -9 9 -9 8 0 15 4 15 9 0 4 -4 8 -9 8 -6 0 -12 -4 -15 -8z"/>
<path d="M540 4560 c0 -5 5 -10 10 -10 6 0 10 5 10 10 0 6 -4 10 -10 10 -5 0 -10 -4 -10 -10z"/>
<path d="M570 4541 c0 -7 -5 -9 -12 -5 -7 5 -8 3 -3 -5 5 -9 10 -10 18 -2 6 6 8 14 4 18 -4 3 -7 1 -7 -6z"/>
<path d="M453 4525 c-3 -9 -3 -19 1 -22 11 -11 46 -14 46 -4 0 6 -9 8 -21 6 -17 -3 -20 0 -16 15 6 24 -1 27 -10 5z"/>
<path d="M703 4485 c0 -8 4 -12 9 -9 5 3 6 10 3 15 -9 13 -12 11 -12 -6z"/>
<path d="M430 4486 c0 -2 7 -7 16 -10 8 -3 12 -2 9 4 -6 10 -25 14 -25 6z"/>
<path d="M473 4455 c0 -13 3 -22 8 -20 9 6 8 45 -2 45 -4 0 -6 -11 -6 -25z"/>
<path d="M430 4460 c0 -6 7 -10 15 -10 8 0 15 2 15 4 0 2 -7 6 -15 10 -8 3 -15 1 -15 -4z"/>
<path d="M666 4461 c-3 -5 -19 -7 -36 -6 -23 2 -28 0 -20 -10 7 -9 4 -20 -12 -41 -13 -15 -16 -24 -8 -19 25 16 42 15 36 -2 -6 -13 -4 -14 9 -3 12 10 13 15 3 21 -6 4 -16 5 -22 2 -5 -3 -6 -1 -2 6 4 6 11 9 16 6 12 -8 41 6 34 16 -3 6 0 16 6 24 7 8 10 15 7 15 -3 0 -8 -4 -11 -9z m-19 -28 c0 -9 -4 -10 -14 -2 -7 6 -13 12 -13 14 0 1 6 2 13 2 8 0 14 -6 14 -14z"/>
<path d="M438 4423 c7 -3 16 -2 19 1 4 3 -2 6 -13 5 -11 0 -14 -3 -6 -6z"/>
<path d="M378 4357 c-3 -19 -2 -25 4 -19 6 6 8 18 6 28 -3 14 -5 12 -10 -9z"/>
<path d="M546 4355 c-10 -8 -27 -12 -38 -10 -15 3 -17 1 -9 -9 6 -7 8 -23 6 -36 -3 -18 -2 -21 7 -12 9 9 16 8 29 -4 13 -12 19 -12 25 -3 4 7 3 10 -3 6 -6 -4 -13 0 -16 7 -8 19 31 68 46 59 7 -3 8 -2 4 2 -12 14 -32 14 -51 0z m7 -19 c-10 -13 -20 -22 -22 -20 -4 4 29 44 36 44 2 0 -4 -11 -14 -24z"/>
<path d="M337 4293 c-10 -9 -9 -23 1 -23 5 0 9 7 9 15 0 17 -1 18 -10 8z"/>
<path d="M469 4268 c-6 -22 -5 -38 2 -38 6 0 7 -5 3 -12 -4 -7 -3 -8 4 -4 7 4 17 16 23 28 8 15 8 19 0 14 -6 -4 -11 -2 -11 3 0 9 -18 16 -21 9z"/>
<path d="M296 4219 c4 -7 44 0 44 7 0 2 -11 3 -24 2 -14 -1 -23 -5 -20 -9z"/>
<path d="M431 4168 c5 -10 11 -18 13 -18 2 0 6 8 8 18 4 12 -1 18 -13 18 -14 0 -15 -4 -8 -18z"/>
<path d="M273 4155 c0 -8 4 -12 9 -9 4 3 8 9 8 15 0 5 -4 9 -8 9 -5 0 -9 -7 -9 -15z"/>
<path d="M447 4146 c-10 -11 -16 -16 -12 -9 9 20 -36 11 -46 -9 -6 -10 -14 -16 -20 -13 -5 4 -8 3 -7 -2 1 -4 -4 -19 -12 -33 -8 -14 -14 -32 -15 -40 0 -8 -5 -15 -12 -15 -7 0 -18 -6 -24 -12 -7 -7 -9 -13 -5 -13 5 0 2 -7 -5 -17 -13 -15 -12 -15 9 -4 16 8 21 18 17 29 -3 9 -3 13 1 10 3 -4 20 0 36 8 23 12 33 13 44 3 21 -17 26 -6 8 19 -16 23 -36 30 -32 11 2 -6 -4 -14 -12 -16 -13 -4 -13 -3 0 6 13 10 13 11 0 11 -9 1 -5 6 10 15 14 8 19 14 10 15 -10 0 -7 5 8 16 12 8 19 20 16 26 -4 7 -2 8 5 4 6 -4 9 -12 6 -17 -11 -17 15 -9 34 10 14 14 22 16 30 8 8 -8 11 -8 11 0 0 25 -25 31 -43 9z"/>
<path d="M236 4063 c-6 -14 -5 -15 5 -6 7 7 10 15 7 18 -3 3 -9 -2 -12 -12z"/>
<path d="M210 4019 c0 -5 5 -7 10 -4 6 3 10 8 10 11 0 2 -4 4 -10 4 -5 0 -10 -5 -10 -11z"/>
<path d="M330 4000 c0 -5 5 -10 10 -10 6 0 10 5 10 10 0 6 -4 10 -10 10 -5 0 -10 -4 -10 -10z"/>
<path d="M271 3946 c-8 -10 -9 -16 -1 -21 5 -3 10 -5 11 -3 4 18 7 38 4 38 -1 0 -8 -6 -14 -14z"/>
<path d="M208 3878 c3 -19 1 -28 -5 -25 -6 4 -19 0 -29 -9 -18 -14 -18 -15 4 -4 26 13 29 3 5 -17 -16 -13 -16 -14 -1 -9 12 3 15 1 12 -9 -3 -8 -12 -11 -19 -9 -7 3 -16 1 -20 -5 -3 -7 0 -8 9 -5 17 6 16 -23 -1 -34 -14 -10 -12 -40 3 -46 8 -3 11 0 8 8 -3 7 4 21 16 31 15 14 17 21 9 32 -9 10 -8 13 1 13 8 0 10 3 7 7 -4 4 4 19 18 33 24 26 44 77 25 65 -5 -3 -18 -1 -28 4 -16 9 -18 6 -14 -21z m34 -6 c-7 -2 -10 -7 -8 -10 2 -4 -6 -16 -16 -27 -20 -20 -20 -20 -5 11 9 17 13 35 9 38 -3 4 2 4 13 0 11 -5 14 -9 7 -12z m-48 -101 c3 -4 -4 -17 -17 -27 -22 -19 -22 -19 -4 2 9 11 14 24 10 27 -3 4 -4 7 0 7 3 0 8 -4 11 -9z"/>
<path d="M176 3885 c-3 -8 -1 -15 4 -15 6 0 10 7 10 15 0 8 -2 15 -4 15 -2 0 -6 -7 -10 -15z"/>
<path d="M110 3580 c0 -5 5 -10 11 -10 5 0 7 5 4 10 -3 6 -8 10 -11 10 -2 0 -4 -4 -4 -10z"/>
<path d="M5735 3480 c3 -5 11 -10 16 -10 6 0 7 5 4 10 -3 6 -11 10 -16 10 -6 0 -7 -4 -4 -10z"/>
<path d="M5706 3395 c-3 -8 -1 -15 3 -15 5 0 11 7 15 15 3 8 1 15 -3 15 -5 0 -11 -7 -15 -15z"/>
<path d="M5712 3344 c-15 -27 14 -67 39 -53 20 10 26 29 8 29 -5 0 -7 -5 -3 -12 4 -7 3 -8 -4 -4 -6 4 -9 13 -6 21 4 8 9 13 13 10 4 -2 8 2 8 10 0 10 -4 12 -12 5 -7 -6 -15 -6 -22 1 -8 8 -14 6 -21 -7z m15 -26 c-3 -8 -6 -5 -6 6 -1 11 2 17 5 13 3 -3 4 -12 1 -19z"/>
<path d="M5745 3249 c-4 -6 -4 -13 -1 -16 3 -4 6 -1 6 6 0 7 5 9 10 6 6 -3 10 -1 10 4 0 14 -17 14 -25 0z"/>
<path d="M40 3231 c0 -6 5 -13 10 -16 6 -4 8 -11 5 -16 -4 -5 -2 -9 4 -9 18 0 18 15 -1 33 -10 9 -18 13 -18 8z"/>
<path d="M5721 3157 c-18 -18 -13 -31 6 -16 9 8 14 9 11 4 -4 -6 -3 -17 3 -25 6 -11 9 -12 9 -2 0 7 5 10 10 7 6 -3 10 -1 10 5 0 7 -7 10 -14 7 -10 -4 -13 -1 -9 8 3 8 10 12 17 8 6 -3 7 -2 3 2 -12 13 -34 14 -46 2z"/>
<path d="M36 3147 c3 -10 9 -15 12 -12 3 3 0 11 -7 18 -10 9 -11 8 -5 -6z"/>
<path d="M5710 2955 c0 -8 -4 -15 -10 -15 -5 0 -7 -7 -3 -16 4 -10 -1 -17 -16 -21 -11 -3 -18 -10 -15 -15 3 -5 12 -7 20 -4 8 3 13 2 13 -2 -3 -20 2 -33 11 -27 6 4 7 13 1 23 -10 20 -3 45 10 36 5 -3 9 0 9 5 0 6 -6 11 -12 11 -8 0 -9 3 -3 8 14 10 17 32 5 32 -5 0 -10 -7 -10 -15z"/>
<path d="M5700 2479 c0 -5 5 -7 10 -4 6 3 10 8 10 11 0 2 -4 4 -10 4 -5 0 -10 -5 -10 -11z"/>
<path d="M5714 2394 c0 -24 3 -44 8 -44 4 0 8 5 8 11 0 5 5 7 12 3 7 -5 8 -3 3 6 -6 9 -4 12 7 8 9 -4 15 0 15 8 0 17 -3 17 -26 4 -15 -8 -18 -5 -15 15 1 14 -1 27 -5 29 -4 3 -7 -15 -7 -40z"/>
<path d="M5720 2121 c-14 -28 -13 -33 8 -20 10 7 19 18 19 25 0 20 -15 17 -27 -5z"/>
<path d="M236 2097 c3 -10 9 -15 12 -12 3 3 0 11 -7 18 -10 9 -11 8 -5 -6z"/>
<path d="M4605 500 c-10 -11 -15 -23 -12 -27 4 -3 7 0 7 8 0 11 2 11 10 -1 7 -11 10 -11 10 -2 0 7 5 10 11 6 12 -7 31 15 23 28 -9 14 -30 9 -49 -12z m40 1 c-9 -8 -36 -10 -30 -2 2 4 11 8 20 8 8 0 13 -3 10 -6z"/>
<path d="M4486 453 c-6 -14 -5 -15 5 -6 7 7 10 15 7 18 -3 3 -9 -2 -12 -12z"/>
<path d="M4165 410 c-3 -5 -12 -7 -20 -3 -8 3 -15 0 -15 -5 0 -16 18 -24 25 -12 4 7 12 7 18 2 18 -13 42 -9 42 7 0 16 -41 25 -50 11z m25 -10 c0 -5 -2 -10 -4 -10 -3 0 -8 5 -11 10 -3 6 -1 10 4 10 6 0 11 -4 11 -10z"/>
</g>
</svg>