<svg class="slot mask" viewBox="0 0 60 68" fill="none" xmlns="http://www.w3.org/2000/svg">
<path d="M59.5 12.8C59.5 10.5515 59.4996 8.89526 59.3927 7.58633C59.2862 6.28324 59.0766 5.36848 58.6825 4.59507C57.9635 3.18386 56.8161 2.0365 55.4049 1.31745C54.6315 0.923377 53.7168 0.7138 52.4137 0.607332C51.1047 0.500388 49.4485 0.499999 47.2 0.499999L12.8 0.499996C10.5515 0.499996 8.89526 0.500384 7.58633 0.607328C6.28323 0.713795 5.36848 0.923373 4.59507 1.31745C3.18385 2.0365 2.0365 3.18385 1.31745 4.59507C0.923378 5.36848 0.713798 6.28323 0.607333 7.58633C0.500388 8.89526 0.499999 10.5515 0.499999 12.8L0.499995 55.2C0.499995 57.4485 0.500384 59.1047 0.607329 60.4137C0.713793 61.7168 0.923373 62.6315 1.31745 63.4049C2.0365 64.8161 3.18385 65.9635 4.59506 66.6826C5.36848 67.0766 6.28323 67.2862 7.58632 67.3927C8.89526 67.4996 10.5515 67.5 12.8 67.5L47.2 67.5C49.4485 67.5 51.1047 67.4996 52.4137 67.3927C53.7168 67.2862 54.6315 67.0766 55.4049 66.6826C56.8161 65.9635 57.9635 64.8162 58.6825 63.4049C59.0766 62.6315 59.2862 61.7168 59.3927 60.4137C59.4996 59.1047 59.5 57.4485 59.5 55.2L59.5 12.8Z" fill="url(#paint0_linear)" stroke="url(#paint1_linear)"/>
<defs>
<linearGradient id="paint0_linear" x1="30" y1="-2.62268e-06" x2="30" y2="68" gradientUnits="userSpaceOnUse">
<stop stop-color="#F7ECFF" stop-opacity="0.02"/>
<stop offset="1" stop-color="#F7ECFF" stop-opacity="0.1"/>
</linearGradient>
<linearGradient id="paint1_linear" x1="30" y1="-2.62268e-06" x2="30" y2="68" gradientUnits="userSpaceOnUse">
<stop stop-color="#CA8EFE"/>
<stop offset="0.494792" stop-color="white"/>
<stop offset="1" stop-color="#CA8EFE"/>
</linearGradient>
</defs>
</svg>
