<svg viewBox="0 0 25 25" fill="none" xmlns="http://www.w3.org/2000/svg">
<path d="M1.5 12.8594C1.22386 13.1355 0.776143 13.1355 0.500002 12.8594C0.223861 12.5832 0.223861 12.1355 0.500002 11.8594L11.5 0.859431C11.7761 0.58329 12.2238 0.58329 12.4999 0.859431C12.7761 1.13557 12.7761 1.58328 12.4999 1.85943L1.5 12.8594Z" fill="url(#paint0_linear)"/>
<path d="M0.499999 12.8594C0.223858 12.5832 0.223857 12.1355 0.499998 11.8594C0.776139 11.5832 1.22385 11.5832 1.49999 11.8594L12.4999 22.8593C12.7761 23.1355 12.7761 23.5832 12.4999 23.8593C12.2238 24.1355 11.7761 24.1355 11.4999 23.8593L0.499999 12.8594Z" fill="url(#paint1_linear)"/>
<path d="M8.63468 12.776C8.40457 13.0061 8.03147 13.0061 7.80135 12.776C7.57124 12.5458 7.57124 12.1728 7.80135 11.9426L16.968 2.77601C17.1981 2.54589 17.5712 2.54589 17.8013 2.77601C18.0314 3.00612 18.0314 3.37922 17.8013 3.60934L8.63468 12.776Z" fill="url(#paint2_linear)"/>
<path d="M7.80143 12.776C7.57131 12.5459 7.57131 12.1728 7.80143 11.9427C8.03155 11.7126 8.40464 11.7126 8.63476 11.9427L17.8014 21.1093C18.0315 21.3395 18.0315 21.7125 17.8014 21.9427C17.5713 22.1728 17.1982 22.1728 16.9681 21.9427L7.80143 12.776Z" fill="url(#paint3_linear)"/>
<g opacity="0.4">
<path d="M16.3848 12.6928C16.2008 12.8769 15.9023 12.8769 15.7182 12.6928C15.5341 12.5087 15.5341 12.2102 15.7182 12.0261L23.0515 4.69283C23.2356 4.50873 23.5341 4.50873 23.7181 4.69283C23.9022 4.87692 23.9022 5.1754 23.7181 5.35949L16.3848 12.6928Z" fill="url(#paint4_linear)"/>
<path d="M15.7181 12.6927C15.534 12.5086 15.534 12.2101 15.7181 12.026C15.9022 11.8419 16.2007 11.8419 16.3848 12.026L23.7181 19.3593C23.9022 19.5434 23.9022 19.8419 23.7181 20.026C23.534 20.2101 23.2355 20.2101 23.0514 20.026L15.7181 12.6927Z" fill="url(#paint5_linear)"/>
</g>
<defs>
<linearGradient id="paint0_linear" x1="0.500002" y1="12.8594" x2="12.4999" y2="0.859431" gradientUnits="userSpaceOnUse">
<stop stop-color="#FFB4A1"/>
<stop offset="0.322917" stop-color="white" stop-opacity="0.760417"/>
<stop offset="0.953125" stop-color="#CA8EFE" stop-opacity="0"/>
</linearGradient>
<linearGradient id="paint1_linear" x1="0.499998" y1="11.8594" x2="12.4999" y2="23.8593" gradientUnits="userSpaceOnUse">
<stop stop-color="#FFB4A1"/>
<stop offset="0.322917" stop-color="white" stop-opacity="0.760417"/>
<stop offset="0.953125" stop-color="#CA8EFE" stop-opacity="0"/>
</linearGradient>
<linearGradient id="paint2_linear" x1="7.80135" y1="12.776" x2="17.8013" y2="2.77601" gradientUnits="userSpaceOnUse">
<stop stop-color="#FFB4A1"/>
<stop offset="0.322917" stop-color="white" stop-opacity="0.760417"/>
<stop offset="0.953125" stop-color="#CA8EFE" stop-opacity="0"/>
</linearGradient>
<linearGradient id="paint3_linear" x1="7.80143" y1="11.9427" x2="17.8014" y2="21.9427" gradientUnits="userSpaceOnUse">
<stop stop-color="#FFB4A1"/>
<stop offset="0.322917" stop-color="white" stop-opacity="0.760417"/>
<stop offset="0.953125" stop-color="#CA8EFE" stop-opacity="0"/>
</linearGradient>
<linearGradient id="paint4_linear" x1="15.7182" y1="12.6928" x2="23.7181" y2="4.69283" gradientUnits="userSpaceOnUse">
<stop stop-color="#FFB4A1"/>
<stop offset="0.322917" stop-color="white" stop-opacity="0.760417"/>
<stop offset="0.953125" stop-color="#CA8EFE" stop-opacity="0"/>
</linearGradient>
<linearGradient id="paint5_linear" x1="15.7181" y1="12.026" x2="23.7181" y2="20.026" gradientUnits="userSpaceOnUse">
<stop stop-color="#FFB4A1"/>
<stop offset="0.322917" stop-color="white" stop-opacity="0.760417"/>
<stop offset="0.953125" stop-color="#CA8EFE" stop-opacity="0"/>
</linearGradient>
</defs>
</svg>