<svg viewBox="0 0 25 25" fill="none" xmlns="http://www.w3.org/2000/svg">
<path d="M22.5513 11.8594C22.8274 11.5832 23.2751 11.5832 23.5513 11.8594C23.8274 12.1355 23.8274 12.5832 23.5513 12.8594L12.5513 23.8593C12.2752 24.1355 11.8275 24.1355 11.5513 23.8593C11.2752 23.5832 11.2752 23.1355 11.5513 22.8593L22.5513 11.8594Z" fill="url(#paint0_linear)"/>
<path d="M23.5513 11.8594C23.8274 12.1355 23.8274 12.5832 23.5513 12.8594C23.2751 13.1355 22.8274 13.1355 22.5513 12.8594L11.5513 1.85942C11.2752 1.58328 11.2752 1.13557 11.5513 0.859425C11.8275 0.583284 12.2752 0.583283 12.5513 0.859425L23.5513 11.8594Z" fill="url(#paint1_linear)"/>
<path d="M15.4166 11.9428C15.6467 11.7127 16.0198 11.7127 16.2499 11.9428C16.48 12.1729 16.48 12.546 16.2499 12.7761L7.08329 21.9427C6.85317 22.1729 6.48008 22.1729 6.24996 21.9427C6.01984 21.7126 6.01984 21.3395 6.24996 21.1094L15.4166 11.9428Z" fill="url(#paint2_linear)"/>
<path d="M16.2498 11.9427C16.48 12.1728 16.48 12.5459 16.2498 12.776C16.0197 13.0062 15.6466 13.0062 15.4165 12.776L6.24988 3.60941C6.01977 3.3793 6.01977 3.0062 6.24988 2.77608C6.48 2.54597 6.8531 2.54597 7.08321 2.77608L16.2498 11.9427Z" fill="url(#paint3_linear)"/>
<g opacity="0.4">
<path d="M7.66642 12.026C7.85052 11.8419 8.14899 11.8419 8.33309 12.026C8.51718 12.2101 8.51718 12.5085 8.33309 12.6926L0.999786 20.0259C0.815692 20.21 0.517217 20.21 0.333123 20.0259C0.149029 19.8418 0.149029 19.5434 0.333123 19.3593L7.66642 12.026Z" fill="url(#paint4_linear)"/>
<path d="M8.33317 12.026C8.51727 12.2101 8.51727 12.5086 8.33317 12.6927C8.14908 12.8768 7.8506 12.8768 7.66651 12.6927L0.333207 5.3594C0.149113 5.17531 0.149113 4.87684 0.333207 4.69274C0.517301 4.50865 0.815777 4.50865 0.999871 4.69274L8.33317 12.026Z" fill="url(#paint5_linear)"/>
</g>
<defs>
<linearGradient id="paint0_linear" x1="23.5513" y1="11.8594" x2="11.5513" y2="23.8593" gradientUnits="userSpaceOnUse">
<stop stop-color="#FFB4A1"/>
<stop offset="0.322917" stop-color="white" stop-opacity="0.760417"/>
<stop offset="0.953125" stop-color="#CA8EFE" stop-opacity="0"/>
</linearGradient>
<linearGradient id="paint1_linear" x1="23.5513" y1="12.8594" x2="11.5513" y2="0.859425" gradientUnits="userSpaceOnUse">
<stop stop-color="#FFB4A1"/>
<stop offset="0.322917" stop-color="white" stop-opacity="0.760417"/>
<stop offset="0.953125" stop-color="#CA8EFE" stop-opacity="0"/>
</linearGradient>
<linearGradient id="paint2_linear" x1="16.2499" y1="11.9428" x2="6.24996" y2="21.9427" gradientUnits="userSpaceOnUse">
<stop stop-color="#FFB4A1"/>
<stop offset="0.322917" stop-color="white" stop-opacity="0.760417"/>
<stop offset="0.953125" stop-color="#CA8EFE" stop-opacity="0"/>
</linearGradient>
<linearGradient id="paint3_linear" x1="16.2498" y1="12.776" x2="6.24988" y2="2.77608" gradientUnits="userSpaceOnUse">
<stop stop-color="#FFB4A1"/>
<stop offset="0.322917" stop-color="white" stop-opacity="0.760417"/>
<stop offset="0.953125" stop-color="#CA8EFE" stop-opacity="0"/>
</linearGradient>
<linearGradient id="paint4_linear" x1="8.33309" y1="12.026" x2="0.333123" y2="20.0259" gradientUnits="userSpaceOnUse">
<stop stop-color="#FFB4A1"/>
<stop offset="0.322917" stop-color="white" stop-opacity="0.760417"/>
<stop offset="0.953125" stop-color="#CA8EFE" stop-opacity="0"/>
</linearGradient>
<linearGradient id="paint5_linear" x1="8.33317" y1="12.6927" x2="0.333207" y2="4.69274" gradientUnits="userSpaceOnUse">
<stop stop-color="#FFB4A1"/>
<stop offset="0.322917" stop-color="white" stop-opacity="0.760417"/>
<stop offset="0.953125" stop-color="#CA8EFE" stop-opacity="0"/>
</linearGradient>
</defs>
</svg>