<svg viewBox="0 0 300 201" fill="none" xmlns="http://www.w3.org/2000/svg">
<path d="M150 0.490234C106.163 0.490234 42.5794 8.6928 15.6609 12.4643C8.16901 13.514 2.55892 19.7273 2.19468 27.2836C1.3507 44.7927 -0.000488281 76.5608 -0.000488281 100.49C-0.000488281 124.42 1.3507 156.188 2.19468 173.697C2.55892 181.253 8.16899 187.466 15.6609 188.516C42.5794 192.288 106.163 200.49 150 200.49C193.836 200.49 257.42 192.288 284.338 188.516C291.83 187.466 297.44 181.253 297.804 173.697C298.648 156.188 300 124.42 300 100.49C300 76.5608 298.648 44.7927 297.804 27.2836C297.44 19.7273 291.83 13.514 284.338 12.4643C257.42 8.6928 193.836 0.490234 150 0.490234Z" fill="url(#paint0_linear)"/>
<defs>
<linearGradient id="paint0_linear" x1="150" y1="136.443" x2="150" y2="200.49" gradientUnits="userSpaceOnUse">
<stop offset="0.828125"/>
<stop offset="1"/>
</linearGradient>
</defs>
</svg>
